<svg width="37" height="37" viewBox="0 0 37 37" fill="none" xmlns="http://www.w3.org/2000/svg">
<path d="M18.5008 31.2014C26.7379 31.2014 33.4154 24.2167 33.4154 15.6007C33.4154 6.98467 26.7379 0 18.5008 0C10.2637 0 3.58624 6.98467 3.58624 15.6007C3.58624 24.2167 10.2637 31.2014 18.5008 31.2014Z" fill="#49B5BC"/>
<path d="M36.0798 12.7305C35.3898 12.3619 34.5606 12.4379 33.9672 12.9253C33.6542 13.1815 33.3807 13.4628 33.1187 13.7344C32.3892 14.4853 31.8128 15.0786 30.6112 15.0786C29.4096 15.0786 28.8331 14.4853 28.1036 13.7344C27.2954 12.9018 26.3797 11.9594 24.5514 11.9594C22.7246 11.9594 21.8082 12.9035 21.0014 13.7344C20.2727 14.4853 19.697 15.0786 18.4962 15.0786C17.2954 15.0786 16.7197 14.4853 15.9894 13.7344C15.1827 12.9018 14.2662 11.9594 12.4379 11.9594C10.6112 11.9594 9.69627 12.9035 8.88799 13.7344C8.1593 14.4853 7.58361 15.0786 6.38277 15.0786C5.18348 15.0786 4.60857 14.4853 3.87988 13.7344C3.61715 13.4644 3.34514 13.1839 3.03373 12.9293C2.44181 12.4419 1.61112 12.3643 0.921841 12.7321C0.224059 13.1039 -0.121356 13.8136 0.0386006 14.5394L4.42388 34.4014C4.75771 35.908 6.20427 37 7.86566 37H29.1337C30.7943 37 32.2424 35.9072 32.5747 34.4014L36.9608 14.537C37.1223 13.8112 36.7768 13.1023 36.0798 12.7305Z" fill="#552E91"/>
<path d="M13.7361 31.5627C14.4169 31.0042 14.8991 30.5435 14.8991 29.7045C14.8983 28.8833 14.2624 28.218 13.4773 28.2172C12.6922 28.218 12.0562 28.8833 12.0554 29.7045H12.8939C12.897 29.3698 13.1574 29.0999 13.4773 29.0999C13.7972 29.0999 14.0576 29.3698 14.0607 29.7045C14.0607 30.0625 13.9386 30.2816 13.2184 30.8732C12.5608 31.4132 12.2007 31.8076 12.0918 32.4114C12.0663 32.5561 12.0547 32.7024 12.0554 32.8495V33.2876H12.8939H14.7724V32.4106H12.9588C13.0476 32.1875 13.2563 31.9572 13.7361 31.5627Z" fill="#49B5BC"/>
<path d="M16.8225 28.2164C16.0428 28.2172 15.4114 28.8775 15.4107 29.6931V31.8116C15.4107 32.6272 16.0428 33.2884 16.8225 33.2884C17.6022 33.2884 18.2342 32.6272 18.2342 31.8116V29.6931C18.2335 28.8784 17.6022 28.2172 16.8225 28.2164ZM17.3958 31.8116C17.3958 32.143 17.1385 32.4114 16.8225 32.4114C16.5056 32.4114 16.2491 32.1422 16.2491 31.8116V29.6931C16.2475 29.4773 16.3565 29.2776 16.5342 29.1693C16.7127 29.061 16.9322 29.061 17.1107 29.1693C17.2892 29.2776 17.3981 29.4781 17.3958 29.6931V31.8116Z" fill="#49B5BC"/>
<path d="M20.4257 31.5627C21.1065 31.0041 21.5887 30.5434 21.5887 29.7044C21.5879 28.8832 20.952 28.218 20.1669 28.2172C19.3818 28.218 18.7458 28.8832 18.745 29.7044H19.5834C19.5865 29.3698 19.8469 29.0998 20.1669 29.0998C20.4868 29.0998 20.7472 29.3698 20.7503 29.7044C20.7503 30.0625 20.6282 30.2815 19.908 30.8732C19.2504 31.4131 18.8903 31.8076 18.7813 32.4113C18.7558 32.556 18.7442 32.7023 18.745 32.8494V33.2875H19.5834H21.462V32.4105H19.6483C19.7372 32.1875 19.9458 31.9571 20.4257 31.5627Z" fill="#49B5BC"/>
<path d="M24.1047 28.2164V29.7036C24.1047 30.0407 23.8435 30.3139 23.5213 30.3139C23.1991 30.3139 22.9379 30.0407 22.9379 29.7036V28.2164H22.0995V29.7036C22.0995 30.208 22.3444 30.6784 22.7493 30.9524C23.1543 31.2264 23.665 31.2668 24.1047 31.0599V33.2884H24.9432V29.7044V28.2172L24.1047 28.2164Z" fill="#49B5BC"/>
<path d="M31.6814 28.5259C31.5361 29.1774 30.9813 29.6389 30.3415 29.6389H25.7197V28.5259H31.6814Z" fill="#EB549E"/>
<path d="M31.2665 30.385C31.1212 31.0365 30.5664 31.498 29.9265 31.498H25.7197V30.385H31.2665Z" fill="#EB549E"/>
<path d="M30.8515 32.244C30.7062 32.8955 30.1514 33.3571 29.5116 33.3571H25.7197V32.244H30.8515Z" fill="#EB549E"/>
<path d="M5.32027 28.5259C5.46554 29.1774 6.02037 29.6389 6.66019 29.6389H11.2819V28.5259H5.32027Z" fill="#EB549E"/>
<path d="M5.73521 30.385C5.88049 31.0365 6.43532 31.498 7.07514 31.498H11.2819V30.385H5.73521Z" fill="#EB549E"/>
<path d="M6.15018 32.244C6.29546 32.8955 6.85028 33.3571 7.49011 33.3571H11.2819V32.244H6.15018Z" fill="#EB549E"/>
<path d="M15.4168 4.21118C15.491 4.20794 15.525 4.22492 15.542 4.30898C15.5899 4.54985 15.736 4.6428 15.9624 4.58622C16.154 4.53772 16.3202 4.41325 16.4361 4.24755C16.5512 4.08347 16.6524 3.8523 16.5574 3.65265C16.4794 3.48857 16.2808 3.39158 16.1231 3.33419C15.9392 3.26629 15.7422 3.24851 15.549 3.26953C14.9462 3.335 14.4246 3.59203 13.9826 4.0277C13.8265 4.18127 13.6898 4.35101 13.5561 4.52479C13.5198 4.56197 13.475 4.56763 13.4255 4.56682C13.3258 4.56601 13.2269 4.55308 13.1272 4.5547C12.7192 4.5644 12.3112 4.5846 11.9071 4.64441C11.2796 4.73817 10.6066 4.94348 10.153 5.43249C10.0262 5.56909 9.92191 5.72671 9.82454 5.88755C9.7094 6.07831 9.62131 6.28685 9.58499 6.51074C9.54945 6.72736 9.55022 6.93267 9.61899 7.13878C9.67463 7.3069 9.76813 7.44997 9.8995 7.55747C10.1066 7.72802 10.3423 7.82824 10.6127 7.81855C10.8631 7.80965 11.1135 7.75792 11.3437 7.65527C11.5168 7.57767 11.6714 7.46532 11.8105 7.33438C11.9511 7.20182 12.1049 7.05391 12.1976 6.87932C12.2788 6.72655 12.2517 6.63037 12.1064 6.54631C12.0771 6.52933 12.0485 6.51155 12.0199 6.49377C11.8429 6.37818 11.8236 6.21572 11.9697 6.05649C12.0686 5.94898 12.1961 5.87624 12.3267 5.81966C12.4163 5.78086 12.5067 5.74287 12.5971 5.70488C12.6651 5.67579 12.7648 5.658 12.8228 5.61435C12.8405 5.60061 12.866 5.59092 12.8838 5.60627C12.9047 5.62486 12.8884 5.6483 12.8753 5.66689C12.8606 5.68791 12.8591 5.71539 12.8483 5.73802C12.8436 5.75176 12.8398 5.76631 12.8344 5.77924C12.5168 6.50993 12.1891 7.23658 11.8375 7.9511C11.7711 8.08689 11.7007 8.22107 11.6165 8.34635C11.5338 8.46921 11.4272 8.57267 11.3267 8.67937C11.2271 8.78525 11.1189 8.8879 10.9945 8.96227C10.7758 9.09159 10.4899 9.10695 10.2519 9.02855C10.1468 8.99379 10.0162 8.92428 9.98141 8.80546C9.959 8.72948 9.97059 8.64623 9.99918 8.57429C10.0285 8.49912 10.0826 8.44416 10.1244 8.37707C10.1808 8.28654 10.2635 8.18227 10.2534 8.0675C10.2449 7.96808 10.1723 7.89129 10.0857 7.85734C10.0193 7.83148 9.95204 7.81693 9.88404 7.80238C9.61204 7.74176 9.34081 7.75388 9.06958 7.81208C8.53948 7.92524 8.01866 8.14267 7.62302 8.54034C7.23974 8.92589 7.01332 9.41733 6.97932 9.97343C6.96773 10.1698 6.97855 10.3743 7.01332 10.5699C7.08287 10.9595 7.27992 11.2432 7.54883 11.5164C8.02097 11.9974 8.66389 12.1461 9.30294 12.096C9.96286 12.0443 10.6228 11.8139 11.1482 11.3831C11.3051 11.2546 11.4527 11.1139 11.5895 10.9628C11.7139 10.8254 11.8646 10.6718 11.9503 10.5029C11.9565 10.4899 11.9619 10.4762 11.9704 10.4649C12.169 10.1803 12.3359 9.87643 12.4874 9.5612C12.6404 9.24193 12.7571 8.9073 12.8877 8.57752C12.9085 8.55732 12.9186 8.52903 12.9294 8.50235C13.0074 8.30271 13.0886 8.10549 13.1705 7.90746C13.2161 7.79672 13.213 7.79591 13.325 7.80804C13.3645 7.81208 13.4031 7.81208 13.4425 7.81289C13.7075 7.81935 14.053 7.89129 14.1349 8.19844C14.1696 8.32938 14.1704 8.47487 14.138 8.60986C14.104 8.75211 14.0275 8.86446 13.9579 8.98894C13.9556 8.99298 13.9092 9.014 13.9 9.02208C13.8783 9.04067 13.8636 9.06734 13.8381 9.08189C13.767 9.12312 13.6944 9.06249 13.631 9.03016C13.5685 8.97439 13.5661 8.89033 13.5391 8.81758C13.4765 8.64865 13.3652 8.60339 13.2138 8.68422C13.1241 8.7319 13.053 8.80384 12.992 8.88386C12.754 9.1999 12.6226 9.56282 12.5693 9.95888C12.4998 10.4762 12.7919 10.9612 13.2686 11.1204C13.6419 11.2449 14.005 11.1915 14.3636 11.0573C14.7948 10.8957 15.1634 10.5788 15.4261 10.19C15.6232 9.89826 15.7453 9.56929 15.8511 9.23304C15.923 9.00511 15.9554 8.75696 15.9392 8.51529C15.9307 8.39081 15.9091 8.26795 15.872 8.14913C15.8341 8.02789 15.7823 7.9406 15.712 7.84199C15.6077 7.69811 15.4787 7.58576 15.3187 7.51301C15.3125 7.50897 15.3063 7.50574 15.3002 7.5017C15.2762 7.46613 15.2352 7.46128 15.2012 7.44269C15.1842 7.4338 15.1649 7.42733 15.1487 7.41602C15.1309 7.40389 15.0969 7.40309 15.0985 7.37641C15.1 7.34408 15.1356 7.34651 15.158 7.34004C15.2476 7.31498 15.3334 7.27942 15.4161 7.23577C16.1703 6.84456 16.3256 5.83825 15.7236 5.23204C15.5691 5.07604 15.3728 4.98309 15.1819 4.88528C15.1247 4.8481 15.0606 4.82951 14.998 4.80688C14.8667 4.76485 14.7361 4.72039 14.6047 4.6816C14.546 4.66381 14.5498 4.64765 14.5885 4.604C14.8126 4.34939 15.0892 4.22492 15.4168 4.21118ZM13.8435 6.8971C13.7269 6.92782 13.6094 6.95126 13.4889 6.96176C13.4371 6.96581 13.4301 6.94883 13.444 6.90276C13.5816 6.46548 13.7292 6.03305 13.9247 5.62001C13.9533 5.5602 13.9803 5.54161 14.0468 5.5602C14.3366 5.64022 14.4633 5.81966 14.4501 6.14702C14.4355 6.50913 14.1975 6.80415 13.8435 6.8971Z" fill="white"/>
<path d="M25.7097 7.81857C25.3341 7.46696 24.6565 7.42736 24.233 7.73289C24.0715 7.84928 23.9154 7.97376 23.7562 8.09419C23.6929 8.12652 23.6511 8.18634 23.5978 8.23241C23.5035 8.32132 23.4093 8.41104 23.315 8.49995C23.325 8.38113 23.3521 8.27444 23.3776 8.16775C23.5445 7.45403 23.7099 6.74112 23.8775 6.02741C23.9146 5.8706 23.9525 5.71541 23.9394 5.55133C23.9185 5.28864 23.7593 5.11486 23.5105 5.07929C23.2539 5.04292 23.009 5.09384 22.7694 5.18356C22.5623 5.2458 22.38 5.35007 22.2324 5.51738C22.21 5.56103 22.1397 5.59094 22.1968 5.65721C22.2981 5.77603 22.3135 5.9191 22.3019 6.06944C22.2872 6.25454 22.2262 6.42913 22.1829 6.60776C22.0616 7.1097 21.9403 7.61165 21.8174 8.11359C21.7069 8.56461 21.5941 9.01483 21.4828 9.46504C21.3484 10.0114 21.2139 10.5586 21.0795 11.105C21.047 11.202 21.0192 11.3007 21.0022 11.4025C20.996 11.4397 20.9589 11.4858 21.0053 11.5092C21.0354 11.5245 21.1822 11.3896 21.2186 11.3702C21.4875 11.2311 21.7533 11.3491 22.0377 11.3257C22.2594 11.3071 22.4573 11.1956 22.5917 11.0105C22.7323 10.8165 22.7733 10.5926 22.8212 10.3614C22.856 10.1949 22.9016 10.0316 22.9618 9.85948C23.1774 10.4229 23.3583 11.1204 23.9216 11.4138C24.2175 11.5682 24.5174 11.5375 24.8172 11.4267C25.1209 11.3152 25.3852 11.1277 25.6502 10.9434C25.695 10.9183 25.7306 10.8803 25.763 10.8415C25.8689 10.7171 25.8542 10.553 25.7344 10.4883C25.6687 10.4592 25.6054 10.473 25.5389 10.4908C25.2028 10.5805 24.886 10.3469 24.665 10.0955C24.5761 9.99366 24.4965 9.88373 24.4254 9.76734C24.2685 9.51434 24.1495 9.23791 24.0414 8.95905C24.0275 8.92268 24.0329 8.89763 24.0615 8.87499C24.0831 8.8661 24.0846 8.84024 24.1001 8.8265C24.2083 8.69475 24.3435 8.6026 24.4926 8.53066C24.5096 8.52258 24.5259 8.50076 24.546 8.51531C24.5668 8.53066 24.5514 8.5533 24.5491 8.57189C24.5297 8.74244 24.5521 8.90086 24.6766 9.02614C24.8636 9.21528 25.0923 9.23872 25.328 9.17729C25.8697 9.03827 26.1478 8.22998 25.7097 7.81857Z" fill="white"/>
<path d="M20.8755 10.1755C20.8044 10.1585 20.7371 10.1666 20.6691 10.1909C20.5517 10.2321 20.4327 10.2644 20.309 10.2151C20.2812 10.186 20.248 10.1602 20.231 10.1205C20.1661 9.95808 20.204 9.79481 20.2418 9.63719C20.3585 9.15142 20.4844 8.66887 20.6042 8.1839C20.6382 8.04811 20.68 7.91393 20.6815 7.77087C20.683 7.59466 20.5795 7.45402 20.4172 7.40876C20.292 7.37319 20.1676 7.38047 20.0424 7.40795C19.8269 7.45483 19.6391 7.56314 19.4621 7.6965C19.4188 7.72884 19.3895 7.73207 19.3462 7.69327C19.2782 7.63265 19.2025 7.58173 19.1306 7.52676C18.4962 7.0426 17.6941 7.38936 17.1717 7.87352C16.6022 8.40052 16.2429 9.19991 16.2329 9.99607C16.2298 10.2677 16.2808 10.5691 16.3951 10.8149C16.4191 10.8658 16.4484 10.9143 16.4848 10.9555C16.7313 11.2336 17.1068 11.2909 17.4468 11.2077C17.6161 11.1665 17.7783 11.0937 17.9244 10.9959C18.1029 10.8755 18.242 10.7057 18.4081 10.5683C18.4491 10.5344 18.4831 10.4924 18.5147 10.4487C18.5379 10.4099 18.5603 10.3711 18.6059 10.3477C18.6191 10.4576 18.6291 10.5619 18.6438 10.6653C18.6832 10.9296 18.7883 11.1479 19.0472 11.2424C19.238 11.312 19.4382 11.3144 19.6368 11.2934C20.0084 11.2538 20.326 11.0687 20.6405 10.8755C20.7348 10.8318 20.8136 10.7664 20.8847 10.6896C20.9396 10.612 20.9983 10.5368 21.0246 10.4414C21.0601 10.3113 20.9999 10.2054 20.8755 10.1755ZM18.9359 8.79335C18.9073 9.05119 18.7937 9.25568 18.558 9.36157C18.371 9.44563 18.2033 9.35187 18.1492 9.14576C18.0751 8.86528 18.2165 8.57268 18.4406 8.41669C18.5866 8.35122 18.728 8.33505 18.8517 8.46761C18.939 8.55894 18.949 8.67615 18.9359 8.79335Z" fill="white"/>
<path d="M29.8609 10.0308C29.7828 10.0106 29.6994 10.0017 29.6205 10.0316C29.4351 10.1027 29.2689 10.2143 29.0935 10.308C28.7736 10.4794 28.1686 10.7106 27.8772 10.3711C27.8293 10.3145 27.8131 10.2434 27.7969 10.1722C27.7837 10.1124 27.7969 10.0882 27.8602 10.0833C28.0132 10.072 28.167 10.0575 28.3192 10.0332C28.7512 9.96452 29.1685 9.84974 29.5224 9.56118C29.6105 9.5143 29.6646 9.43509 29.7202 9.35264C29.9567 9.00427 29.9567 8.48293 29.7194 8.12244C29.544 7.8557 29.2983 7.72153 29.0093 7.67788C28.711 7.63342 28.4104 7.63262 28.1091 7.6989C27.8185 7.76275 27.5334 7.85732 27.2691 7.99796C27.1053 8.08526 26.9438 8.18063 26.8016 8.30268C26.5327 8.53305 26.3155 8.90971 26.1873 9.24353C25.9153 9.94916 25.9941 10.848 26.6262 11.3103C27.0465 11.6183 27.5218 11.6732 28.0171 11.6175C28.2636 11.59 28.4993 11.5156 28.7342 11.4372C28.8115 11.4275 28.8733 11.3782 28.9436 11.3491C29.0873 11.2901 29.2241 11.2133 29.3478 11.1204C29.5031 11.0032 29.6553 10.8795 29.7898 10.7324C29.8972 10.6144 29.9737 10.4842 30.0177 10.3315C30.0517 10.2167 29.9729 10.0599 29.8609 10.0308ZM27.9738 9.05116C28.0488 8.84989 28.2196 8.53224 28.4599 8.5387C28.5951 8.54275 28.6987 8.66965 28.667 8.81029C28.6222 9.00751 28.4097 9.08187 28.2451 9.12714C28.1817 9.14492 28.1137 9.16755 28.0472 9.15785C27.936 9.15543 27.9352 9.15542 27.9738 9.05116Z" fill="white"/>
<path d="M17.9908 0.500362C18.1794 0.742039 18.3664 0.985333 18.558 1.22378C18.8007 1.52688 18.8571 1.86636 18.7574 2.24141C18.7041 2.44105 18.6283 2.63181 18.5402 2.81609C18.3556 3.20084 18.327 3.5977 18.4267 4.01074C18.4916 4.2799 18.5913 4.53531 18.7157 4.77861C18.888 5.11566 18.8671 5.44059 18.684 5.76229C18.5673 5.96759 18.4066 6.13572 18.2512 6.31273C18.2675 6.25453 18.2837 6.19634 18.2999 6.13814C18.4506 5.58932 18.3903 5.06717 18.1207 4.57007C18.0457 4.43185 17.9622 4.3001 17.8718 4.1732C17.6261 3.82968 17.5882 3.45464 17.7188 3.05535C17.7899 2.83792 17.8942 2.63666 18.0341 2.45964C18.3169 2.10076 18.3641 1.69743 18.2597 1.26096C18.1972 0.998265 18.0936 0.753356 17.9762 0.514104C17.9715 0.500363 17.9777 0.497129 17.9908 0.500362Z" fill="#EB549E"/>
<path d="M19.4923 7.05635C19.3833 6.90197 19.279 6.74355 19.1646 6.59402C18.9058 6.25777 18.8663 5.89566 19.0224 5.50121C19.0812 5.3533 19.1414 5.20457 19.1863 5.051C19.2728 4.75355 19.228 4.46823 19.1136 4.18937C19.0495 4.03337 18.9784 3.88061 18.9521 3.70925C18.9019 3.38028 18.9915 3.09819 19.1948 2.84924C19.2179 2.82095 19.2434 2.79347 19.2798 2.75143C19.2705 2.83469 19.2643 2.89935 19.2558 2.9632C19.2002 3.40857 19.2821 3.82079 19.5185 4.19907C19.6105 4.34537 19.687 4.50218 19.7233 4.67596C19.7697 4.89581 19.7349 5.10516 19.6437 5.30561C19.5834 5.43736 19.5209 5.5683 19.4567 5.69844C19.2944 6.0266 19.2929 6.36527 19.3887 6.71122C19.4204 6.82438 19.4598 6.9343 19.5069 7.041C19.5108 7.05716 19.5054 7.0612 19.4923 7.05635Z" fill="#EB549E"/>
<path d="M19.9721 5.94817C20.1174 5.71216 20.2241 5.45997 20.2781 5.18354C20.357 4.7794 20.3052 4.38819 20.1692 4.00587C20.1228 3.87574 20.0664 3.75126 20.0115 3.62436C20.3129 3.87978 20.5919 4.15136 20.6823 4.57005C20.7364 4.82143 20.6831 5.05502 20.5679 5.27649C20.4281 5.54403 20.2233 5.75338 20.0023 5.94656C19.9915 5.95707 19.9822 5.95626 19.9721 5.94817Z" fill="#EB549E"/>
<path d="M9.08889 16.9584C8.71489 16.9584 8.35556 17.1161 8.09283 17.3957C7.83087 17.1161 7.47232 16.9584 7.09832 16.9584C6.80932 16.9584 6.52727 17.053 6.29158 17.2276C6.14244 17.0619 5.93612 16.9689 5.71898 16.9689H5.31716V17.8088H5.70044V21.8195H6.50486V18.4214C6.50486 18.0771 6.76991 17.8007 7.09832 17.8007C7.42441 17.8007 7.68946 18.0747 7.69178 18.4166V21.8203H8.49466V18.4222C8.49466 18.2509 8.56111 18.0949 8.66929 17.9825C8.77593 17.871 8.92507 17.8015 9.08889 17.8015C9.41653 17.8015 9.68235 18.0787 9.68235 18.4222V21.8203H10.4852V18.4222C10.4852 17.6148 9.85931 16.9601 9.08889 16.9584Z" fill="white"/>
<path d="M11.7796 20.0947H13.2578V21.8188H14.0622V18.5776C14.0607 17.686 13.3714 16.9651 12.5191 16.9634C11.6683 16.9651 10.9775 17.686 10.9775 18.5776V21.8237H11.7804V20.0947H11.7796ZM11.7796 18.5784C11.7796 18.1508 12.1111 17.8057 12.5183 17.8057C12.9271 17.8057 13.2571 18.1508 13.2571 18.5784V19.2549H11.7788V18.5784H11.7796Z" fill="white"/>
<path d="M17.2359 20.9895H15.3535V16.9683H14.5506V21.8293H17.2359V20.9895Z" fill="white"/>
<path d="M20.8098 18.5784C20.8098 17.6869 20.1189 16.9659 19.2682 16.9643C18.4158 16.9659 17.7266 17.6869 17.725 18.5784V21.8245H18.5294V20.0948H20.0077V21.8188H20.8105V20.0948H20.8121V19.255H20.8105V18.5784H20.8098ZM20.0069 19.255H18.5286V18.5784C18.5286 18.1509 18.8586 17.8057 19.2674 17.8057C19.6762 17.8057 20.0061 18.1509 20.0061 18.5784V19.255H20.0069Z" fill="white"/>
<path d="M24.0128 19.1717C24.2886 18.7344 24.3126 18.1743 24.0738 17.7136C23.8366 17.2529 23.376 16.9643 22.8753 16.9643H21.1645V17.8057H21.5145V19.8143H21.513V20.9815H21.5145V21.8229H23.3196C23.9332 21.8229 24.471 21.3937 24.6341 20.7745C24.7963 20.1538 24.5413 19.4975 24.0128 19.1717ZM22.3182 17.8057H22.8761C23.077 17.8033 23.2632 17.914 23.3637 18.0951C23.4649 18.2778 23.4649 18.5 23.3637 18.6827C23.2655 18.8613 23.0816 18.9721 22.8846 18.9721H22.3189V17.8057H22.3182ZM23.3204 20.9807H22.3182V19.8135H23.3212C23.6303 19.8135 23.8791 20.0738 23.8791 20.3971C23.8783 20.7204 23.6295 20.9807 23.3204 20.9807Z" fill="white"/>
<path d="M28.2566 21.8197V18.5784C28.2551 17.6869 27.5658 16.9659 26.7135 16.9643C25.8627 16.9659 25.1727 17.6869 25.1719 18.5784V21.8245H25.9748V20.0948H27.4538V21.8188H28.2566V21.8197ZM25.974 19.255V18.5784C25.974 18.1509 26.3055 17.8057 26.7127 17.8057C27.1215 17.8057 27.453 18.1509 27.453 18.5784V19.255H25.974Z" fill="white"/>
<path d="M31.2881 19.3859V19.3843C31.6752 18.9761 31.7911 18.365 31.5794 17.834C31.3677 17.3037 30.8724 16.9562 30.3222 16.9562H28.6113V17.796H28.9598V21.8164H29.7643V19.8038H30.3423C30.6429 19.8167 30.8801 20.0737 30.8801 20.3873V21.8164H31.6845V20.3873C31.6853 20.0131 31.5423 19.6534 31.2881 19.3859ZM30.343 18.9656H29.765V17.7968H30.3229C30.6282 17.7968 30.8755 18.053 30.8809 18.3707C30.8863 18.6899 30.6475 18.9543 30.343 18.9656Z" fill="white"/>
<path d="M5.31639 23.5542H6.1239V26.9975H6.81086V23.5542H7.6176V22.8348H5.31639V23.5542Z" fill="white"/>
<path d="M10.3508 23.5865C10.17 23.1315 9.74496 22.8348 9.27359 22.8348H7.80925V23.555H8.10753V26.9975H8.79603V25.275H9.29136C9.54868 25.2847 9.75191 25.5046 9.75191 25.7754V26.9983H10.4404V25.7746C10.4404 25.4513 10.3176 25.1425 10.1012 24.9137C10.4319 24.5654 10.5324 24.0408 10.3508 23.5865ZM9.29136 24.5549H8.79603V23.555H9.27436C9.53554 23.555 9.74805 23.7741 9.75268 24.0465C9.75732 24.318 9.55177 24.5452 9.29136 24.5549Z" fill="white"/>
<path d="M12.186 22.8412C11.4566 22.8412 10.8654 23.4596 10.8639 24.2226V27.0039H11.5524V25.5223H12.8189V26.9982H13.5074V24.2226C13.5051 23.4596 12.914 22.8412 12.186 22.8412ZM12.8181 24.8021H11.5516V24.2226C11.5516 23.8564 11.8352 23.5598 12.1853 23.5598C12.5338 23.5598 12.8174 23.8564 12.8174 24.2226V24.8021H12.8181Z" fill="white"/>
<path d="M15.3782 22.8412H13.8111V23.5598H14.1094V27.0039H15.3782C16.083 27.0023 16.6525 26.4066 16.654 25.6694V24.1741C16.6525 23.4386 16.083 22.8412 15.3782 22.8412ZM15.9655 25.6702C15.9655 26.0097 15.702 26.2845 15.3782 26.2845H14.7979V23.5606H15.3782C15.7028 23.5622 15.9655 23.8362 15.9655 24.1749V25.6702Z" fill="white"/>
<path d="M17.103 23.8056C17.086 23.8921 17.0767 23.9769 17.0767 24.0618V25.7834C17.0782 26.4576 17.5998 27.0031 18.2443 27.0048H19.517V26.2846H18.2443C17.9792 26.2846 17.766 26.0607 17.7652 25.7834V25.1748C17.9159 25.2459 18.0797 25.2831 18.2443 25.2831H19.517V24.5629H18.2443C17.9792 24.5629 17.7652 24.339 17.7652 24.0618C17.7652 23.7862 17.9792 23.5615 18.2443 23.5607H19.517V22.8421H18.2443C17.6941 22.8413 17.2189 23.243 17.103 23.8056Z" fill="white"/>
<path d="M21.5632 23.8056C21.5447 23.8945 21.5377 23.985 21.5392 24.0731C21.5377 24.0691 21.5377 24.0658 21.5377 24.0618V24.1063V27.0048H22.2247V25.1748C22.3753 25.2459 22.5392 25.2831 22.7038 25.2831H23.9765V24.5629H22.7045C22.4395 24.5629 22.2262 24.339 22.2254 24.0618C22.227 23.7862 22.4395 23.5615 22.7045 23.5607H23.9772V22.8421H22.7045C22.1543 22.8413 21.6791 23.243 21.5632 23.8056Z" fill="white"/>
<path d="M27.0411 24.2226C27.0404 23.4596 26.4492 22.8413 25.7197 22.8405C24.9903 22.8413 24.3991 23.4596 24.3984 24.2226V24.8022V25.5215V27.0031H25.0861V25.5215H26.3526V26.9983H27.0404V25.5215V24.8022V24.2226H27.0411ZM25.0869 24.803V24.2234C25.0869 23.8581 25.3705 23.5614 25.7197 23.5614C26.069 23.5614 26.3526 23.8581 26.3526 24.2234V24.803H25.0869Z" fill="white"/>
<path d="M28.4467 23.5728V26.2886H28.745V27.0072H27.46V26.2886H27.7582V23.5728H27.46V22.8526H27.7582V22.8445H28.4467V22.8526H28.745V23.5728H28.4467Z" fill="white"/>
<path d="M31.3453 24.9137C31.3437 24.9137 31.3437 24.9137 31.3437 24.9137C31.6768 24.5654 31.7749 24.0408 31.5941 23.5865C31.414 23.1315 30.9883 22.8348 30.5184 22.8348H29.4003C29.3987 22.8348 29.398 22.8348 29.398 22.8348H29.0533V23.555H29.3532V26.9975H30.0417V25.275H30.537C30.666 25.2807 30.7804 25.3381 30.8631 25.4286C30.9473 25.5175 30.9975 25.6404 30.9975 25.7754V26.9983H31.6861V25.7746C31.6853 25.4513 31.5624 25.1425 31.3453 24.9137ZM30.0409 24.5549V23.555H30.5192C30.7804 23.555 30.9921 23.7741 30.9975 24.0465C31.0014 24.318 30.7966 24.5452 30.537 24.5549H30.0409Z" fill="white"/>
</svg>
