<svg width="193" height="57" viewBox="0 0 193 57" fill="none" xmlns="http://www.w3.org/2000/svg">
<path d="M78.8224 24.412V10.867C78.8224 10.685 78.9274 10.538 79.1374 10.426C79.3614 10.3 79.6064 10.237 79.8724 10.237C80.1664 10.237 80.3624 10.321 80.4604 10.489L85.4164 17.818L90.3934 10.489C90.4914 10.321 90.6664 10.237 90.9184 10.237C91.1704 10.237 91.4154 10.3 91.6534 10.426C91.8914 10.552 92.0104 10.699 92.0104 10.867V24.412C92.0104 24.594 91.9334 24.741 91.7794 24.853C91.6254 24.951 91.4434 25 91.2334 25C90.7154 25 90.4564 24.804 90.4564 24.412V13.135L86.6344 18.679C86.2984 19.169 85.8854 19.414 85.3954 19.414C84.9474 19.414 84.5484 19.169 84.1984 18.679L80.3764 13.135V24.412C80.3764 24.594 80.2994 24.741 80.1454 24.853C79.9914 24.951 79.8094 25 79.5994 25C79.0814 25 78.8224 24.804 78.8224 24.412ZM94.5181 24.223C94.5181 24.167 94.5321 24.097 94.5601 24.013L95.9881 20.233H95.1271C94.7491 20.233 94.5601 19.967 94.5601 19.435C94.5601 19.225 94.6091 19.05 94.7071 18.91C94.8051 18.756 94.9451 18.679 95.1271 18.679H96.5761L99.4951 11.035C99.6071 10.811 99.7611 10.636 99.9571 10.51C100.153 10.37 100.328 10.3 100.482 10.3C100.636 10.3 100.811 10.37 101.007 10.51C101.203 10.65 101.35 10.825 101.448 11.035L104.367 18.679H105.732C105.914 18.679 106.054 18.756 106.152 18.91C106.264 19.064 106.32 19.246 106.32 19.456C106.32 19.974 106.124 20.233 105.732 20.233H104.976L106.425 24.013C106.453 24.097 106.467 24.167 106.467 24.223C106.467 24.433 106.362 24.615 106.152 24.769C105.942 24.923 105.732 25 105.522 25C105.298 25 105.13 24.895 105.018 24.685L103.317 20.233H97.6681L95.9671 24.685C95.8551 24.895 95.6871 25 95.4631 25C95.2531 25 95.0431 24.923 94.8331 24.769C94.6231 24.615 94.5181 24.433 94.5181 24.223ZM98.2561 18.679H102.708L100.482 12.82L98.2561 18.679ZM108.917 24.412V10.867C108.917 10.489 109.183 10.3 109.715 10.3C109.925 10.3 110.1 10.349 110.24 10.447C110.394 10.545 110.471 10.685 110.471 10.867V23.467H117.359C117.541 23.467 117.681 23.544 117.779 23.698C117.891 23.852 117.947 24.034 117.947 24.244C117.947 24.748 117.751 25 117.359 25H110.135C109.323 25 108.917 24.804 108.917 24.412ZM119.096 24.223C119.096 24.167 119.11 24.097 119.138 24.013L120.566 20.233H119.705C119.327 20.233 119.138 19.967 119.138 19.435C119.138 19.225 119.187 19.05 119.285 18.91C119.383 18.756 119.523 18.679 119.705 18.679H121.154L124.073 11.035C124.185 10.811 124.339 10.636 124.535 10.51C124.731 10.37 124.906 10.3 125.06 10.3C125.214 10.3 125.389 10.37 125.585 10.51C125.781 10.65 125.928 10.825 126.026 11.035L128.945 18.679H130.31C130.492 18.679 130.632 18.756 130.73 18.91C130.842 19.064 130.898 19.246 130.898 19.456C130.898 19.974 130.702 20.233 130.31 20.233H129.554L131.003 24.013C131.031 24.097 131.045 24.167 131.045 24.223C131.045 24.433 130.94 24.615 130.73 24.769C130.52 24.923 130.31 25 130.1 25C129.876 25 129.708 24.895 129.596 24.685L127.895 20.233H122.246L120.545 24.685C120.433 24.895 120.265 25 120.041 25C119.831 25 119.621 24.923 119.411 24.769C119.201 24.615 119.096 24.433 119.096 24.223ZM122.834 18.679H127.286L125.06 12.82L122.834 18.679ZM133.495 24.412V10.867C133.495 10.489 133.761 10.3 134.293 10.3C134.503 10.3 134.678 10.349 134.818 10.447C134.972 10.545 135.049 10.685 135.049 10.867V11.98C136.057 10.846 137.331 10.279 138.871 10.279C139.907 10.279 140.796 10.559 141.538 11.119C142.28 11.679 142.651 12.456 142.651 13.45C142.651 14.066 142.483 14.682 142.147 15.298C141.825 15.9 141.314 16.313 140.614 16.537C141.944 16.747 142.959 17.244 143.659 18.028C144.373 18.812 144.73 19.652 144.73 20.548C144.73 21.934 144.282 23.082 143.386 23.992C142.49 24.902 141.09 25.357 139.186 25.357C137.548 25.357 136.155 25.112 135.007 24.622C134.881 24.874 134.636 25 134.272 25C133.754 25 133.495 24.804 133.495 24.412ZM135.049 23.089C135.945 23.565 137.254 23.803 138.976 23.803C140.404 23.803 141.461 23.516 142.147 22.942C142.833 22.354 143.176 21.633 143.176 20.779C143.176 19.785 142.749 19.043 141.895 18.553C141.041 18.049 139.914 17.797 138.514 17.797C138.08 17.797 137.457 17.811 136.645 17.839C135.833 17.853 135.301 17.86 135.049 17.86V23.089ZM135.049 16.159C135.609 16.229 136.232 16.264 136.918 16.264C138.234 16.264 139.256 15.998 139.984 15.466C140.726 14.92 141.097 14.283 141.097 13.555C141.097 12.953 140.894 12.505 140.488 12.211C140.082 11.917 139.543 11.77 138.871 11.77C138.087 11.77 137.352 11.959 136.666 12.337C135.98 12.715 135.441 13.303 135.049 14.101V16.159ZM146.423 24.223C146.423 24.167 146.437 24.097 146.465 24.013L147.893 20.233H147.032C146.654 20.233 146.465 19.967 146.465 19.435C146.465 19.225 146.514 19.05 146.612 18.91C146.71 18.756 146.85 18.679 147.032 18.679H148.481L151.4 11.035C151.512 10.811 151.666 10.636 151.862 10.51C152.058 10.37 152.233 10.3 152.387 10.3C152.541 10.3 152.716 10.37 152.912 10.51C153.108 10.65 153.255 10.825 153.353 11.035L156.272 18.679H157.637C157.819 18.679 157.959 18.756 158.057 18.91C158.169 19.064 158.225 19.246 158.225 19.456C158.225 19.974 158.029 20.233 157.637 20.233H156.881L158.33 24.013C158.358 24.097 158.372 24.167 158.372 24.223C158.372 24.433 158.267 24.615 158.057 24.769C157.847 24.923 157.637 25 157.427 25C157.203 25 157.035 24.895 156.923 24.685L155.222 20.233H149.573L147.872 24.685C147.76 24.895 147.592 25 147.368 25C147.158 25 146.948 24.923 146.738 24.769C146.528 24.615 146.423 24.433 146.423 24.223ZM150.161 18.679H154.613L152.387 12.82L150.161 18.679ZM160.822 24.433V10.888C160.822 10.496 161.081 10.3 161.599 10.3C162.089 10.3 162.334 10.601 162.334 11.203C163.776 10.587 165.169 10.279 166.513 10.279C168.417 10.279 169.817 10.734 170.713 11.644C171.609 12.554 172.057 13.702 172.057 15.088C172.057 17.048 171.042 18.35 169.012 18.994L172.519 24.055C172.603 24.209 172.645 24.342 172.645 24.454C172.645 24.622 172.575 24.755 172.435 24.853C172.309 24.951 172.141 25 171.931 25C171.497 25 171.154 24.825 170.902 24.475L167.416 19.351C166.716 19.449 165.883 19.498 164.917 19.498C164.637 19.498 164.21 19.477 163.636 19.435C163.076 19.393 162.656 19.372 162.376 19.372V24.433C162.376 24.615 162.299 24.755 162.145 24.853C162.005 24.951 161.83 25 161.62 25C161.088 25 160.822 24.811 160.822 24.433ZM162.376 17.566C162.95 17.748 164.105 17.839 165.841 17.839C167.241 17.839 168.368 17.594 169.222 17.104C170.076 16.6 170.503 15.851 170.503 14.857C170.503 14.003 170.16 13.289 169.474 12.715C168.788 12.127 167.731 11.833 166.303 11.833C165.071 11.833 163.762 12.204 162.376 12.946V17.566ZM65.682 36.056C65.682 35.846 65.731 35.671 65.829 35.531C65.927 35.377 66.067 35.3 66.249 35.3H76.623C76.805 35.3 76.945 35.377 77.043 35.531C77.155 35.685 77.211 35.867 77.211 36.077C77.211 36.595 77.015 36.854 76.623 36.854H72.087V49.412C72.087 49.594 72.01 49.741 71.856 49.853C71.702 49.951 71.52 50 71.31 50C70.792 50 70.533 49.804 70.533 49.412V36.854H66.249C65.871 36.854 65.682 36.588 65.682 36.056ZM79.171 49.433V35.888C79.171 35.496 79.43 35.3 79.948 35.3C80.438 35.3 80.683 35.601 80.683 36.203C82.125 35.587 83.518 35.279 84.862 35.279C86.766 35.279 88.166 35.734 89.062 36.644C89.958 37.554 90.406 38.702 90.406 40.088C90.406 42.048 89.391 43.35 87.361 43.994L90.868 49.055C90.952 49.209 90.994 49.342 90.994 49.454C90.994 49.622 90.924 49.755 90.784 49.853C90.658 49.951 90.49 50 90.28 50C89.846 50 89.503 49.825 89.251 49.475L85.765 44.351C85.065 44.449 84.232 44.498 83.266 44.498C82.986 44.498 82.559 44.477 81.985 44.435C81.425 44.393 81.005 44.372 80.725 44.372V49.433C80.725 49.615 80.648 49.755 80.494 49.853C80.354 49.951 80.179 50 79.969 50C79.437 50 79.171 49.811 79.171 49.433ZM80.725 42.566C81.299 42.748 82.454 42.839 84.19 42.839C85.59 42.839 86.717 42.594 87.571 42.104C88.425 41.6 88.852 40.851 88.852 39.857C88.852 39.003 88.509 38.289 87.823 37.715C87.137 37.127 86.08 36.833 84.652 36.833C83.42 36.833 82.111 37.204 80.725 37.946V42.566ZM92.816 49.223C92.816 49.167 92.83 49.097 92.858 49.013L94.286 45.233H93.425C93.047 45.233 92.858 44.967 92.858 44.435C92.858 44.225 92.907 44.05 93.005 43.91C93.103 43.756 93.243 43.679 93.425 43.679H94.874L97.793 36.035C97.905 35.811 98.059 35.636 98.255 35.51C98.451 35.37 98.626 35.3 98.78 35.3C98.934 35.3 99.109 35.37 99.305 35.51C99.501 35.65 99.648 35.825 99.746 36.035L102.665 43.679H104.03C104.212 43.679 104.352 43.756 104.45 43.91C104.562 44.064 104.618 44.246 104.618 44.456C104.618 44.974 104.422 45.233 104.03 45.233H103.274L104.723 49.013C104.751 49.097 104.765 49.167 104.765 49.223C104.765 49.433 104.66 49.615 104.45 49.769C104.24 49.923 104.03 50 103.82 50C103.596 50 103.428 49.895 103.316 49.685L101.615 45.233H95.966L94.265 49.685C94.153 49.895 93.985 50 93.761 50C93.551 50 93.341 49.923 93.131 49.769C92.921 49.615 92.816 49.433 92.816 49.223ZM96.554 43.679H101.006L98.78 37.82L96.554 43.679ZM107.215 49.412V35.867C107.215 35.489 107.481 35.3 108.013 35.3C108.223 35.3 108.398 35.349 108.538 35.447C108.692 35.545 108.769 35.685 108.769 35.867V36.035C109.763 35.391 110.736 35.069 111.688 35.069C113.788 35.069 115.608 35.783 117.148 37.211C118.702 38.625 119.479 40.403 119.479 42.545C119.479 43.889 119.178 45.135 118.576 46.283C117.974 47.417 117.064 48.355 115.846 49.097C114.628 49.825 113.214 50.189 111.604 50.189C110.526 50.189 109.581 49.93 108.769 49.412C108.769 49.594 108.692 49.741 108.538 49.853C108.384 49.951 108.202 50 107.992 50C107.474 50 107.215 49.804 107.215 49.412ZM108.769 47.396C109.539 48.222 110.519 48.635 111.709 48.635C113.599 48.635 115.104 48.019 116.224 46.787C117.344 45.555 117.904 44.134 117.904 42.524C117.904 40.956 117.33 39.584 116.182 38.408C115.048 37.218 113.564 36.623 111.73 36.623C110.736 36.623 109.749 36.966 108.769 37.652V47.396ZM122.17 48.929V36.35C122.17 35.664 122.352 35.321 122.716 35.321H133.51C133.692 35.321 133.832 35.398 133.93 35.552C134.042 35.706 134.098 35.888 134.098 36.098C134.098 36.616 133.902 36.875 133.51 36.875H123.724V40.991H131.62C131.802 40.991 131.942 41.068 132.04 41.222C132.152 41.376 132.208 41.558 132.208 41.768C132.208 42.286 132.012 42.545 131.62 42.545H123.724V48.446H133.51C133.692 48.446 133.832 48.523 133.93 48.677C134.042 48.831 134.098 49.013 134.098 49.223C134.098 49.741 133.902 50 133.51 50H122.716C122.478 50 122.324 49.916 122.254 49.748C122.198 49.58 122.17 49.307 122.17 48.929ZM141.765 49.412V36.35C141.765 35.664 141.947 35.321 142.311 35.321H153.105C153.287 35.321 153.427 35.398 153.525 35.552C153.637 35.706 153.693 35.888 153.693 36.098C153.693 36.616 153.497 36.875 153.105 36.875H143.319V40.991H151.215C151.397 40.991 151.537 41.068 151.635 41.222C151.747 41.376 151.803 41.558 151.803 41.768C151.803 42.286 151.607 42.545 151.215 42.545H143.319V49.412C143.319 49.594 143.235 49.741 143.067 49.853C142.913 49.951 142.731 50 142.521 50C142.017 50 141.765 49.804 141.765 49.412ZM153.626 49.223C153.626 49.167 153.64 49.097 153.668 49.013L155.096 45.233H154.235C153.857 45.233 153.668 44.967 153.668 44.435C153.668 44.225 153.717 44.05 153.815 43.91C153.913 43.756 154.053 43.679 154.235 43.679H155.684L158.603 36.035C158.715 35.811 158.869 35.636 159.065 35.51C159.261 35.37 159.436 35.3 159.59 35.3C159.744 35.3 159.919 35.37 160.115 35.51C160.311 35.65 160.458 35.825 160.556 36.035L163.475 43.679H164.84C165.022 43.679 165.162 43.756 165.26 43.91C165.372 44.064 165.428 44.246 165.428 44.456C165.428 44.974 165.232 45.233 164.84 45.233H164.084L165.533 49.013C165.561 49.097 165.575 49.167 165.575 49.223C165.575 49.433 165.47 49.615 165.26 49.769C165.05 49.923 164.84 50 164.63 50C164.406 50 164.238 49.895 164.126 49.685L162.425 45.233H156.776L155.075 49.685C154.963 49.895 154.795 50 154.571 50C154.361 50 154.151 49.923 153.941 49.769C153.731 49.615 153.626 49.433 153.626 49.223ZM157.364 43.679H161.816L159.59 37.82L157.364 43.679ZM168.025 49.412V35.867C168.025 35.489 168.291 35.3 168.823 35.3C169.033 35.3 169.208 35.349 169.348 35.447C169.502 35.545 169.579 35.685 169.579 35.867V49.412C169.579 49.594 169.502 49.741 169.348 49.853C169.194 49.951 169.012 50 168.802 50C168.284 50 168.025 49.804 168.025 49.412ZM172.849 49.433V35.888C172.849 35.496 173.108 35.3 173.626 35.3C174.116 35.3 174.361 35.601 174.361 36.203C175.803 35.587 177.196 35.279 178.54 35.279C180.444 35.279 181.844 35.734 182.74 36.644C183.636 37.554 184.084 38.702 184.084 40.088C184.084 42.048 183.069 43.35 181.039 43.994L184.546 49.055C184.63 49.209 184.672 49.342 184.672 49.454C184.672 49.622 184.602 49.755 184.462 49.853C184.336 49.951 184.168 50 183.958 50C183.524 50 183.181 49.825 182.929 49.475L179.443 44.351C178.743 44.449 177.91 44.498 176.944 44.498C176.664 44.498 176.237 44.477 175.663 44.435C175.103 44.393 174.683 44.372 174.403 44.372V49.433C174.403 49.615 174.326 49.755 174.172 49.853C174.032 49.951 173.857 50 173.647 50C173.115 50 172.849 49.811 172.849 49.433ZM174.403 42.566C174.977 42.748 176.132 42.839 177.868 42.839C179.268 42.839 180.395 42.594 181.249 42.104C182.103 41.6 182.53 40.851 182.53 39.857C182.53 39.003 182.187 38.289 181.501 37.715C180.815 37.127 179.758 36.833 178.33 36.833C177.098 36.833 175.789 37.204 174.403 37.946V42.566Z" fill="white"/>
<path d="M34.9924 46.6939C47.9401 46.6939 58.4363 36.6888 58.4363 24.347C58.4363 12.0051 47.9401 2 34.9924 2C22.0447 2 11.5485 12.0051 11.5485 24.347C11.5485 36.6888 22.0447 46.6939 34.9924 46.6939Z" fill="#49B5BC"/>
<path d="M62.6244 20.2356C61.5397 19.7076 60.2364 19.8165 59.3036 20.5146C58.8116 20.8817 58.3817 21.2846 57.9699 21.6736C56.8233 22.7492 55.9171 23.599 54.0284 23.599C52.1396 23.599 51.2335 22.7492 50.0868 21.6736C48.8163 20.4811 47.377 19.131 44.5031 19.131C41.6317 19.131 40.1911 20.4834 38.923 21.6736C37.7776 22.7492 36.8727 23.599 34.9851 23.599C33.0976 23.599 32.1927 22.7492 31.0448 21.6736C29.7767 20.4811 28.3362 19.131 25.4623 19.131C22.5909 19.131 21.1528 20.4834 19.8822 21.6736C18.7368 22.7492 17.8319 23.599 15.9444 23.599C14.0592 23.599 13.1555 22.7492 12.0101 21.6736C11.5971 21.2869 11.1696 20.8851 10.6801 20.5204C9.74966 19.8223 8.44392 19.7111 7.36046 20.2379C6.26363 20.7705 5.72068 21.7871 5.97211 22.8268L12.8652 51.2777C13.39 53.4359 15.6638 55.0001 18.2753 55.0001H51.706C54.3162 55.0001 56.5925 53.4347 57.1148 51.2777L64.0091 22.8233C64.263 21.7836 63.72 20.7682 62.6244 20.2356Z" fill="#552E91"/>
<path d="M27.5029 47.2121C28.573 46.412 29.331 45.752 29.331 44.5502C29.3298 43.3739 28.3301 42.421 27.096 42.4199C25.8619 42.421 24.8623 43.3739 24.8611 44.5502H26.179C26.1838 44.0709 26.5932 43.6842 27.096 43.6842C27.5989 43.6842 28.0082 44.0709 28.0131 44.5502C28.0131 45.0632 27.8212 45.3769 26.6891 46.2244C25.6555 46.9979 25.0894 47.5629 24.9182 48.4278C24.8781 48.635 24.8599 48.8446 24.8611 49.0553V49.6828H26.179H29.1318V48.4266H26.281C26.4207 48.107 26.7486 47.7771 27.5029 47.2121Z" fill="#49B5BC"/>
<path d="M32.3542 42.4181C31.1286 42.4192 30.1363 43.3652 30.1351 44.5334V47.568C30.1351 48.7363 31.1286 49.6834 32.3542 49.6834C33.5798 49.6834 34.5734 48.7363 34.5734 47.568V44.5334C34.5722 43.3663 33.5798 42.4192 32.3542 42.4181ZM33.2555 47.568C33.2555 48.0427 32.851 48.4271 32.3542 48.4271C31.8562 48.4271 31.4529 48.0416 31.4529 47.568V44.5334C31.4505 44.2243 31.6218 43.9383 31.9012 43.7831C32.1817 43.628 32.5267 43.628 32.8073 43.7831C33.0879 43.9383 33.2591 44.2254 33.2555 44.5334V47.568Z" fill="#49B5BC"/>
<path d="M38.0181 47.2114C39.0882 46.4114 39.8461 45.7514 39.8461 44.5496C39.8449 43.3733 38.8453 42.4204 37.6112 42.4192C36.3771 42.4204 35.3775 43.3733 35.3762 44.5496H36.6941C36.699 44.0703 37.1083 43.6836 37.6112 43.6836C38.1141 43.6836 38.5234 44.0703 38.5283 44.5496C38.5283 45.0625 38.3363 45.3763 37.2043 46.2238C36.1706 46.9972 35.6046 47.5622 35.4333 48.4271C35.3933 48.6344 35.375 48.8439 35.3762 49.0547V49.6822H36.6941H39.6469V48.426H36.7962C36.9358 48.1064 37.2638 47.7764 38.0181 47.2114Z" fill="#49B5BC"/>
<path d="M43.8011 42.4181V44.5485C43.8011 45.0313 43.3905 45.4226 42.884 45.4226C42.3775 45.4226 41.9669 45.0313 41.9669 44.5485V42.4181H40.649V44.5485C40.649 45.2709 41.0341 45.9448 41.6706 46.3373C42.307 46.7298 43.1099 46.7877 43.8011 46.4913V49.6834H45.1189V44.5496V42.4192L43.8011 42.4181Z" fill="#49B5BC"/>
<path d="M55.7106 42.8615C55.4823 43.7947 54.6102 44.4558 53.6045 44.4558H46.3397V42.8615H55.7106Z" fill="#EB549E"/>
<path d="M55.0584 45.5245C54.83 46.4577 53.9579 47.1188 52.9522 47.1188H46.3397V45.5245H55.0584Z" fill="#EB549E"/>
<path d="M54.4061 48.1875C54.1778 49.1207 53.3056 49.7818 52.2999 49.7818H46.3397V48.1875H54.4061Z" fill="#EB549E"/>
<path d="M14.2742 42.8615C14.5026 43.7947 15.3747 44.4558 16.3804 44.4558H23.6452V42.8615H14.2742Z" fill="#EB549E"/>
<path d="M14.9265 45.5245C15.1548 46.4577 16.0269 47.1188 17.0327 47.1188H23.6452V45.5245H14.9265Z" fill="#EB549E"/>
<path d="M15.5788 48.1875C15.8071 49.1207 16.6792 49.7818 17.685 49.7818H23.6452V48.1875H15.5788Z" fill="#EB549E"/>
<path d="M30.1448 8.03221C30.2614 8.02758 30.3148 8.05189 30.3416 8.1723C30.4169 8.51733 30.6464 8.65048 31.0023 8.56943C31.3036 8.49996 31.5647 8.32166 31.7469 8.08431C31.9279 7.84928 32.087 7.51814 31.9376 7.23216C31.8149 6.99712 31.5028 6.85819 31.255 6.77598C30.9659 6.67873 30.6561 6.65325 30.3525 6.68336C29.4051 6.77714 28.5852 7.14533 27.8904 7.76939C27.645 7.98937 27.43 8.23251 27.2199 8.48144C27.1628 8.5347 27.0924 8.5428 27.0146 8.54165C26.8579 8.54049 26.7025 8.52196 26.5458 8.52428C25.9045 8.53817 25.2631 8.56712 24.6279 8.6528C23.6416 8.7871 22.5836 9.08119 21.8706 9.78166C21.6714 9.97733 21.5074 10.2031 21.3544 10.4335C21.1734 10.7068 21.0349 11.0055 20.9778 11.3262C20.922 11.6365 20.9232 11.9306 21.0313 12.2258C21.1187 12.4666 21.2657 12.6716 21.4722 12.8256C21.7977 13.0699 22.1682 13.2134 22.5933 13.1995C22.9869 13.1868 23.3804 13.1127 23.7424 12.9656C24.0145 12.8545 24.2574 12.6936 24.476 12.506C24.6971 12.3161 24.9388 12.1042 25.0846 11.8542C25.2121 11.6353 25.1696 11.4975 24.9412 11.3771C24.8951 11.3528 24.8501 11.3273 24.8052 11.3019C24.527 11.1363 24.4967 10.9036 24.7262 10.6755C24.8817 10.5215 25.0821 10.4173 25.2874 10.3363C25.4283 10.2807 25.5704 10.2263 25.7125 10.1718C25.8194 10.1302 25.9761 10.1047 26.0672 10.0422C26.0951 10.0225 26.1352 10.0086 26.1632 10.0306C26.196 10.0572 26.1705 10.0908 26.1498 10.1174C26.1267 10.1475 26.1243 10.1869 26.1073 10.2193C26.1 10.239 26.0939 10.2598 26.0854 10.2784C25.5862 11.325 25.0712 12.3659 24.5185 13.3894C24.4141 13.5839 24.3035 13.7761 24.1712 13.9556C24.0412 14.1316 23.8736 14.2798 23.7157 14.4326C23.559 14.5843 23.3889 14.7313 23.1934 14.8378C22.8496 15.0231 22.4002 15.0451 22.0261 14.9328C21.8609 14.883 21.6556 14.7834 21.601 14.6132C21.5657 14.5044 21.584 14.3851 21.6289 14.2821C21.6751 14.1744 21.7601 14.0957 21.8257 13.9996C21.9143 13.8699 22.0443 13.7205 22.0285 13.5561C22.0152 13.4137 21.901 13.3037 21.7649 13.2551C21.6605 13.2181 21.5548 13.1972 21.4479 13.1764C21.0204 13.0895 20.594 13.1069 20.1677 13.1903C19.3344 13.3524 18.5158 13.6638 17.8939 14.2335C17.2914 14.7857 16.9355 15.4897 16.8821 16.2863C16.8638 16.5676 16.8808 16.8605 16.9355 17.1407C17.0448 17.6988 17.3546 18.1052 17.7773 18.4965C18.5194 19.1854 19.53 19.3985 20.5345 19.3267C21.5718 19.2526 22.6091 18.9226 23.4351 18.3055C23.6817 18.1214 23.9136 17.9199 24.1286 17.7034C24.3242 17.5066 24.5611 17.2866 24.6959 17.0446C24.7056 17.0261 24.7141 17.0064 24.7275 16.9902C25.0396 16.5827 25.302 16.1473 25.5401 15.6958C25.7806 15.2384 25.964 14.7591 26.1692 14.2867C26.202 14.2578 26.2178 14.2172 26.2348 14.179C26.3575 13.8931 26.4851 13.6106 26.6138 13.3269C26.6855 13.1683 26.6806 13.1671 26.8567 13.1845C26.9187 13.1903 26.9794 13.1903 27.0414 13.1914C27.458 13.2007 28.0009 13.3037 28.1297 13.7437C28.1843 13.9313 28.1856 14.1397 28.1345 14.333C28.0811 14.5368 27.9608 14.6977 27.8515 14.876C27.8479 14.8818 27.775 14.9119 27.7604 14.9235C27.7264 14.9501 27.7033 14.9884 27.6633 15.0092C27.5515 15.0682 27.4373 14.9814 27.3377 14.9351C27.2393 14.8552 27.2357 14.7348 27.1932 14.6306C27.0948 14.3886 26.9199 14.3238 26.6818 14.4395C26.5409 14.5079 26.4292 14.6109 26.3332 14.7255C25.9591 15.1782 25.7526 15.6981 25.6688 16.2654C25.5595 17.0064 26.0186 17.7011 26.7681 17.9292C27.3547 18.1075 27.9256 18.0311 28.4892 17.8389C29.167 17.6073 29.7464 17.1535 30.1594 16.5966C30.4691 16.1786 30.661 15.7074 30.8274 15.2257C30.9404 14.8992 30.9914 14.5437 30.9659 14.1976C30.9525 14.0193 30.9185 13.8433 30.8602 13.6731C30.8007 13.4994 30.7193 13.3744 30.6088 13.2331C30.4448 13.027 30.242 12.8661 29.9905 12.7619C29.9808 12.7561 29.9711 12.7515 29.9614 12.7457C29.9237 12.6947 29.8593 12.6878 29.8059 12.6611C29.7792 12.6484 29.7488 12.6391 29.7233 12.6229C29.6954 12.6056 29.6419 12.6044 29.6443 12.5662C29.6468 12.5199 29.7026 12.5234 29.7379 12.5141C29.8788 12.4782 30.0136 12.4273 30.1436 12.3647C31.3291 11.8044 31.5732 10.3629 30.627 9.49453C30.3841 9.27107 30.0755 9.13792 29.7755 8.99783C29.6856 8.94457 29.5848 8.91794 29.4864 8.88552C29.28 8.82531 29.0747 8.76163 28.8682 8.70606C28.7759 8.68059 28.7819 8.65743 28.8427 8.5949C29.1949 8.23019 29.6298 8.05189 30.1448 8.03221ZM27.6718 11.8796C27.4884 11.9236 27.3037 11.9572 27.1142 11.9722C27.0329 11.978 27.0219 11.9537 27.0438 11.8877C27.26 11.2613 27.492 10.6419 27.7993 10.0503C27.8442 9.9646 27.8868 9.93797 27.9912 9.9646C28.4467 10.0792 28.6459 10.3363 28.6253 10.8052C28.6022 11.3239 28.2281 11.7465 27.6718 11.8796Z" fill="white"/>
<path d="M46.3239 13.1995C45.7335 12.6959 44.6683 12.6391 44.0027 13.0768C43.7488 13.2435 43.5035 13.4218 43.2532 13.5943C43.1536 13.6407 43.088 13.7263 43.0042 13.7923C42.8561 13.9197 42.7079 14.0482 42.5597 14.1756C42.5755 14.0054 42.618 13.8525 42.6581 13.6997C42.9204 12.6774 43.1804 11.6562 43.4439 10.6338C43.5022 10.4092 43.5618 10.1869 43.5411 9.95186C43.5083 9.57557 43.2581 9.32664 42.867 9.2757C42.4637 9.2236 42.0787 9.29654 41.7021 9.42506C41.3766 9.51421 41.09 9.66357 40.858 9.90324C40.8227 9.96576 40.7122 10.0086 40.8021 10.1035C40.9612 10.2737 40.9855 10.4787 40.9673 10.694C40.9442 10.9592 40.8482 11.2092 40.7802 11.4651C40.5895 12.1841 40.3988 12.9031 40.2057 13.6221C40.032 14.2682 39.8547 14.9131 39.6798 15.558C39.4684 16.3407 39.2571 17.1245 39.0457 17.9072C38.9947 18.0461 38.951 18.1874 38.9242 18.3333C38.9145 18.3865 38.8562 18.4525 38.9291 18.4861C38.9765 18.5081 39.2073 18.3147 39.2643 18.287C39.687 18.0878 40.1049 18.2569 40.5519 18.2233C40.9005 18.1967 41.2114 18.0369 41.4228 17.7717C41.6438 17.4939 41.7082 17.1731 41.7835 16.842C41.8382 16.6035 41.9098 16.3696 42.0046 16.123C42.3435 16.93 42.6277 17.9292 43.5132 18.3495C43.9784 18.5706 44.4497 18.5266 44.9209 18.368C45.3983 18.2082 45.8137 17.9396 46.2303 17.6756C46.3008 17.6397 46.3567 17.5853 46.4077 17.5298C46.5741 17.3514 46.551 17.1164 46.3627 17.0238C46.2595 16.9821 46.1599 17.0018 46.0554 17.0273C45.5271 17.1558 45.0291 16.8212 44.6817 16.4611C44.542 16.3152 44.4169 16.1577 44.3051 15.991C44.0585 15.6286 43.8715 15.2326 43.7014 14.8332C43.6796 14.7811 43.6881 14.7452 43.733 14.7128C43.767 14.7001 43.7695 14.663 43.7938 14.6433C43.9638 14.4546 44.1764 14.3226 44.4108 14.2196C44.4375 14.208 44.463 14.1767 44.4946 14.1976C44.5274 14.2196 44.5031 14.252 44.4995 14.2786C44.4691 14.5229 44.5043 14.7498 44.6999 14.9293C44.9938 15.2002 45.3534 15.2338 45.7238 15.1458C46.5753 14.9467 47.0126 13.7889 46.3239 13.1995Z" fill="white"/>
<path d="M38.725 16.5757C38.6133 16.5514 38.5076 16.563 38.4007 16.5977C38.2161 16.6567 38.0291 16.7031 37.8347 16.6324C37.791 16.5907 37.7387 16.5537 37.712 16.497C37.61 16.2642 37.6695 16.0304 37.729 15.8046C37.9124 15.1087 38.1104 14.4175 38.2987 13.7228C38.3521 13.5283 38.4177 13.3361 38.4202 13.1312C38.4226 12.8788 38.2598 12.6773 38.0048 12.6125C37.808 12.5616 37.6124 12.572 37.4157 12.6113C37.0768 12.6785 36.7816 12.8336 36.5035 13.0247C36.4354 13.071 36.3893 13.0756 36.3213 13.0201C36.2144 12.9332 36.0953 12.8603 35.9824 12.7815C34.9851 12.088 33.7243 12.5847 32.9032 13.2782C32.008 14.0331 31.4432 15.1782 31.4274 16.3187C31.4226 16.7077 31.5028 17.1396 31.6825 17.4915C31.7202 17.5645 31.7663 17.6339 31.8234 17.693C32.2109 18.0913 32.8012 18.1735 33.3357 18.0542C33.6017 17.9952 33.8567 17.891 34.0863 17.7509C34.3669 17.5784 34.5855 17.3352 34.8467 17.1384C34.9111 17.0898 34.9645 17.0296 35.0143 16.967C35.0507 16.9115 35.086 16.8559 35.1576 16.8223C35.1783 16.9798 35.1941 17.1291 35.2171 17.2773C35.2791 17.6559 35.4443 17.9685 35.8512 18.104C36.1512 18.2036 36.4658 18.2071 36.778 18.177C37.3622 18.1202 37.8614 17.8551 38.3558 17.5784C38.504 17.5158 38.6279 17.4221 38.7396 17.3121C38.8259 17.2009 38.9182 17.0932 38.9595 16.9566C39.0153 16.7702 38.9206 16.6185 38.725 16.5757ZM35.6763 14.5958C35.6313 14.9652 35.4528 15.2581 35.0823 15.4098C34.7884 15.5302 34.5248 15.3959 34.4398 15.1006C34.3232 14.6989 34.5454 14.2798 34.8977 14.0563C35.1273 13.9625 35.3495 13.9394 35.5439 14.1292C35.6811 14.2601 35.6969 14.428 35.6763 14.5958Z" fill="white"/>
<path d="M52.849 16.3685C52.7263 16.3395 52.5951 16.3268 52.4712 16.3696C52.1797 16.4715 51.9185 16.6313 51.6428 16.7656C51.14 17.011 50.1889 17.3422 49.731 16.8559C49.6557 16.7748 49.6301 16.673 49.6046 16.5711C49.584 16.4854 49.6046 16.4507 49.7042 16.4437C49.9447 16.4275 50.1865 16.4067 50.4257 16.3719C51.1047 16.2735 51.7606 16.1091 52.3169 15.6958C52.4554 15.6286 52.5404 15.5151 52.6279 15.397C52.9996 14.898 52.9996 14.1512 52.6267 13.6349C52.351 13.2528 51.9647 13.0606 51.5104 12.9981C51.0416 12.9344 50.5691 12.9332 50.0954 13.0282C49.6387 13.1196 49.1904 13.2551 48.775 13.4566C48.5175 13.5816 48.2637 13.7182 48.0402 13.893C47.6175 14.223 47.2762 14.7626 47.0745 15.2407C46.647 16.2515 46.7709 17.539 47.7645 18.2013C48.4252 18.6424 49.1722 18.7211 49.9508 18.6412C50.3383 18.6019 50.7088 18.4954 51.078 18.383C51.1995 18.3692 51.2966 18.2985 51.4072 18.2568C51.6331 18.1723 51.8481 18.0623 52.0424 17.9292C52.2866 17.7613 52.5259 17.5842 52.7372 17.3734C52.906 17.2044 53.0263 17.018 53.0955 16.7992C53.149 16.6347 53.0251 16.4101 52.849 16.3685ZM49.8828 14.9652C50.0006 14.6769 50.269 14.2219 50.6468 14.2311C50.8594 14.2369 51.0221 14.4187 50.9723 14.6202C50.9019 14.9027 50.5678 15.0092 50.3091 15.074C50.2095 15.0995 50.1026 15.1319 49.9982 15.118C49.8233 15.1145 49.8221 15.1145 49.8828 14.9652Z" fill="white"/>
<path d="M34.1908 2.71671C34.4872 3.0629 34.7811 3.4114 35.0823 3.75296C35.4637 4.18714 35.5524 4.67342 35.3957 5.21064C35.3119 5.49662 35.1929 5.76987 35.0544 6.03385C34.7641 6.58497 34.7191 7.15345 34.8758 7.74509C34.9779 8.13065 35.1346 8.49652 35.3301 8.84502C35.601 9.32783 35.5682 9.79327 35.2803 10.2541C35.0969 10.5482 34.8443 10.789 34.6001 11.0425C34.6256 10.9592 34.6511 10.8758 34.6766 10.7925C34.9135 10.0063 34.8187 9.25836 34.3948 8.5463C34.277 8.34832 34.1458 8.15959 34.0037 7.97782C33.6175 7.48575 33.5579 6.94852 33.7632 6.37656C33.875 6.06511 34.0389 5.77681 34.2588 5.52325C34.7034 5.00918 34.7774 4.43143 34.6135 3.80622C34.5151 3.42993 34.3523 3.07911 34.1677 2.7364C34.1604 2.71671 34.1701 2.71208 34.1908 2.71671Z" fill="#EB549E"/>
<path d="M36.5508 12.1078C36.3796 11.8866 36.2156 11.6597 36.0358 11.4455C35.6289 10.9638 35.567 10.4451 35.8123 9.88012C35.9046 9.66824 35.9994 9.4552 36.0698 9.23521C36.2059 8.80914 36.1354 8.40043 35.9557 8.00099C35.8548 7.77753 35.7431 7.5587 35.7018 7.31325C35.6229 6.84202 35.7637 6.43794 36.0832 6.08133C36.1196 6.04081 36.1597 6.00144 36.2168 5.94124C36.2022 6.06049 36.1925 6.15312 36.1792 6.24458C36.0917 6.88254 36.2205 7.47303 36.5921 8.01488C36.7367 8.22445 36.8569 8.44906 36.914 8.69799C36.9869 9.01292 36.9322 9.31279 36.7889 9.59993C36.6942 9.78865 36.5958 9.97622 36.495 10.1626C36.2399 10.6327 36.2375 11.1178 36.3881 11.6134C36.4379 11.7755 36.4998 11.9329 36.5739 12.0858C36.58 12.1089 36.5715 12.1147 36.5508 12.1078Z" fill="#EB549E"/>
<path d="M37.3051 10.5203C37.5335 10.1823 37.7011 9.82103 37.7861 9.42506C37.91 8.84615 37.8287 8.28577 37.6149 7.73812C37.542 7.55172 37.4533 7.37341 37.3671 7.19164C37.8408 7.5575 38.2793 7.94653 38.4214 8.54628C38.5064 8.90636 38.4226 9.24096 38.2416 9.55821C38.0218 9.94144 37.6999 10.2413 37.3525 10.518C37.3355 10.5331 37.3209 10.5319 37.3051 10.5203Z" fill="#EB549E"/>
<path d="M20.1981 26.2921C19.6102 26.2921 19.0454 26.5179 18.6324 26.9185C18.2206 26.5179 17.657 26.2921 17.0691 26.2921C16.6149 26.2921 16.1715 26.4275 15.8011 26.6776C15.5666 26.4403 15.2423 26.3071 14.901 26.3071H14.2694V27.5101H14.8718V33.2552H16.1363V28.3877C16.1363 27.8945 16.5529 27.4985 17.0691 27.4985C17.5817 27.4985 17.9983 27.891 18.002 28.3808V33.2563H19.264V28.3889C19.264 28.1434 19.3685 27.92 19.5385 27.759C19.7061 27.5993 19.9406 27.4997 20.1981 27.4997C20.7131 27.4997 21.1309 27.8968 21.1309 28.3889V33.2563H22.3929V28.3889C22.3929 27.2322 21.4091 26.2944 20.1981 26.2921Z" fill="white"/>
<path d="M24.4275 30.7843H26.7511V33.254H28.0155V28.6111C28.0131 27.3341 26.9296 26.3013 25.5899 26.299C24.2525 26.3013 23.1667 27.3341 23.1667 28.6111V33.2609H24.4287V30.7843H24.4275ZM24.4275 28.6123C24.4275 27.9998 24.9485 27.5054 25.5887 27.5054C26.2312 27.5054 26.7499 27.9998 26.7499 28.6123V29.5814H24.4262V28.6123H24.4275Z" fill="white"/>
<path d="M33.0041 32.0661H30.0452V26.306H28.7832V33.2691H33.0041V32.0661Z" fill="white"/>
<path d="M38.6218 28.6123C38.6218 27.3353 37.5359 26.3025 36.1986 26.3002C34.8588 26.3025 33.7754 27.3353 33.7729 28.6123V33.2621H35.0374V30.7844H37.361V33.254H38.623V30.7844H38.6254V29.5814H38.623V28.6123H38.6218ZM37.3598 29.5814H35.0361V28.6123C35.0361 27.9999 35.5548 27.5055 36.1974 27.5055C36.8399 27.5055 37.3586 27.9999 37.3586 28.6123V29.5814H37.3598Z" fill="white"/>
<path d="M43.6565 29.4622C44.0901 28.8358 44.1278 28.0334 43.7525 27.3735C43.3796 26.7135 42.6556 26.3002 41.8685 26.3002H39.1793V27.5055H39.7296V30.3826H39.7271V32.0545H39.7296V33.2598H42.567C43.5314 33.2598 44.3768 32.645 44.6331 31.7581C44.8882 30.8689 44.4873 29.9288 43.6565 29.4622ZM40.9928 27.5055H41.8698C42.1856 27.502 42.4783 27.6606 42.6362 27.92C42.7953 28.1816 42.7953 28.5 42.6362 28.7617C42.4819 29.0176 42.1929 29.1762 41.8831 29.1762H40.994V27.5055H40.9928ZM42.5682 32.0534H40.9928V30.3815H42.5694C43.0553 30.3815 43.4464 30.7543 43.4464 31.2174C43.4452 31.6805 43.054 32.0534 42.5682 32.0534Z" fill="white"/>
<path d="M50.3273 33.2552V28.6123C50.3249 27.3353 49.2415 26.3025 47.9017 26.3002C46.5644 26.3025 45.4797 27.3353 45.4785 28.6123V33.2621H46.7405V30.7844H49.0653V33.254H50.3273V33.2552ZM46.7393 29.5814V28.6123C46.7393 27.9999 47.2604 27.5055 47.9005 27.5055C48.543 27.5055 49.0641 27.9999 49.0641 28.6123V29.5814H46.7393Z" fill="white"/>
<path d="M55.0924 29.769V29.7666C55.7009 29.1819 55.8831 28.3066 55.5503 27.5459C55.2175 26.7864 54.4389 26.2886 53.5741 26.2886H50.8849V27.4915H51.4327V33.2505H52.6971V30.3675H53.6057C54.0782 30.3861 54.4511 30.7542 54.4511 31.2035V33.2505H55.7155V31.2035C55.7167 30.6674 55.492 30.1522 55.0924 29.769ZM53.6069 29.1669H52.6983V27.4927H53.5753C54.0551 27.4927 54.4438 27.8597 54.4523 28.3147C54.4608 28.7721 54.0855 29.1507 53.6069 29.1669Z" fill="white"/>
<path d="M14.2681 35.7398H15.5374V40.6721H16.6173V35.7398H17.8854V34.7094H14.2681V35.7398Z" fill="white"/>
<path d="M22.1816 35.7861C21.8973 35.1343 21.2293 34.7094 20.4884 34.7094H18.1866V35.741H18.6555V40.6721H19.7377V38.2048H20.5163C20.9208 38.2187 21.2402 38.5336 21.2402 38.9215V40.6733H22.3225V38.9203C22.3225 38.4572 22.1293 38.0149 21.7892 37.6873C22.3091 37.1882 22.467 36.4368 22.1816 35.7861ZM20.5163 37.1732H19.7377V35.741H20.4896C20.9001 35.741 21.2342 36.0547 21.2414 36.4449C21.2487 36.834 20.9256 37.1593 20.5163 37.1732Z" fill="white"/>
<path d="M25.0664 34.7186C23.9197 34.7186 22.9905 35.6043 22.9881 36.6973V40.6813H24.0704V38.559H26.0612V40.6732H27.1434V36.6973C27.1398 35.6043 26.2106 34.7186 25.0664 34.7186ZM26.0599 37.5274H24.0691V36.6973C24.0691 36.1728 24.5149 35.7479 25.0651 35.7479C25.613 35.7479 26.0587 36.1728 26.0587 36.6973V37.5274H26.0599Z" fill="white"/>
<path d="M30.0841 34.7186H27.6208V35.7479H28.0896V40.6813H30.0841C31.1918 40.679 32.087 39.8257 32.0894 38.7698V36.6278C32.087 35.5742 31.1918 34.7186 30.0841 34.7186ZM31.0072 38.7709C31.0072 39.2572 30.593 39.6509 30.0841 39.6509H29.1719V35.749H30.0841C30.5942 35.7513 31.0072 36.1438 31.0072 36.629V38.7709Z" fill="white"/>
<path d="M32.7951 36.0999C32.7684 36.2238 32.7539 36.3454 32.7539 36.4669V38.9331C32.7563 39.8987 33.5762 40.6802 34.5892 40.6825H36.5897V39.6509H34.5892C34.1726 39.6509 33.8373 39.3302 33.8361 38.9331V38.0613C34.073 38.1631 34.3305 38.2164 34.5892 38.2164H36.5897V37.1848H34.5892C34.1726 37.1848 33.8361 36.8641 33.8361 36.4669C33.8361 36.0721 34.1726 35.7503 34.5892 35.7491H36.5897V34.7198H34.5892C33.7244 34.7186 32.9773 35.2941 32.7951 36.0999Z" fill="white"/>
<path d="M39.8061 36.0999C39.7769 36.2273 39.766 36.3569 39.7684 36.4832C39.766 36.4774 39.766 36.4727 39.766 36.4669V36.5306V40.6825H40.8458V38.0613C41.0827 38.1631 41.3402 38.2164 41.5989 38.2164H43.5994V37.1848H41.6001C41.1835 37.1848 40.8482 36.8641 40.847 36.4669C40.8495 36.0721 41.1835 35.7503 41.6001 35.7491H43.6006V34.7198H41.6001C40.7353 34.7186 39.9883 35.2941 39.8061 36.0999Z" fill="white"/>
<path d="M48.4167 36.6973C48.4155 35.6043 47.4863 34.7186 46.3397 34.7174C45.193 34.7186 44.2638 35.6043 44.2626 36.6973V37.5274V38.5579V40.6802H45.3436V38.5579H47.3345V40.6732H48.4155V38.5579V37.5274V36.6973H48.4167ZM45.3449 37.5286V36.6984C45.3449 36.1751 45.7906 35.7502 46.3397 35.7502C46.8887 35.7502 47.3345 36.1751 47.3345 36.6984V37.5286H45.3449Z" fill="white"/>
<path d="M50.6262 35.7665V39.6567H51.095V40.686H49.0751V39.6567H49.5439V35.7665H49.0751V34.7349H49.5439V34.7233H50.6262V34.7349H51.095V35.7665H50.6262Z" fill="white"/>
<path d="M55.1823 37.6873C55.1799 37.6873 55.1799 37.6873 55.1799 37.6873C55.7034 37.1882 55.8576 36.4368 55.5734 35.7861C55.2904 35.1343 54.6211 34.7094 53.8826 34.7094H52.125C52.1226 34.7094 52.1214 34.7094 52.1214 34.7094H51.5796V35.741H52.0509V40.6721H53.1332V38.2048H53.9118C54.1146 38.2129 54.2944 38.2951 54.4243 38.4248C54.5567 38.5521 54.6357 38.7281 54.6357 38.9215V40.6733H55.7179V38.9203C55.7167 38.4572 55.5236 38.0149 55.1823 37.6873ZM53.132 37.1732V35.741H53.8838C54.2944 35.741 54.6272 36.0547 54.6357 36.4449C54.6418 36.834 54.3199 37.1593 53.9118 37.1732H53.132Z" fill="white"/>
</svg>
