<?xml version="1.0" encoding="utf-8"?>
<!-- Generator: Adobe Illustrator 27.0.0, SVG Export Plug-In . SVG Version: 6.00 Build 0)  -->
<svg version="1.1" id="Layer_1" xmlns="http://www.w3.org/2000/svg" xmlns:xlink="http://www.w3.org/1999/xlink" x="0px" y="0px"
	 viewBox="0 0 1080 1080" style="enable-background:new 0 0 1080 1080;" xml:space="preserve">
<style type="text/css">
	.st0{fill:#49B5BC;}
	.st1{fill:#552E91;}
	.st2{fill:#EB549E;}
	.st3{fill:#FFFFFF;}
</style>
<g>
	<circle class="st0" cx="540" cy="504.13" r="193.01"/>
	<path class="st1" d="M767.49,468.62c-8.93-4.56-19.66-3.62-27.34,2.41c-4.05,3.17-7.59,6.65-10.98,10.01
		c-9.44,9.29-16.9,16.63-32.45,16.63s-23.01-7.34-32.45-16.63c-10.46-10.3-22.31-21.96-45.97-21.96c-23.64,0-35.5,11.68-45.94,21.96
		c-9.43,9.29-16.88,16.63-32.42,16.63c-15.54,0-22.99-7.34-32.44-16.63c-10.44-10.3-22.3-21.96-45.96-21.96
		c-23.64,0-35.48,11.68-45.94,21.96c-9.43,9.29-16.88,16.63-32.42,16.63c-15.52,0-22.96-7.34-32.39-16.63
		c-3.4-3.34-6.92-6.81-10.95-9.96c-7.66-6.03-18.41-6.99-27.33-2.44c-9.03,4.6-13.5,13.38-11.43,22.36l56.75,245.73
		c4.32,18.64,23.04,32.15,44.54,32.15h275.23c21.49,0,40.23-13.52,44.53-32.15l56.76-245.76
		C780.98,481.99,776.51,473.22,767.49,468.62z"/>
	<g>
		<g>
			<path class="st0" d="M478.34,701.61c8.81-6.91,15.05-12.61,15.05-22.99c-0.01-10.16-8.24-18.39-18.4-18.4l0,0
				c-10.16,0.01-18.39,8.24-18.4,18.4h10.85c0.04-4.14,3.41-7.48,7.55-7.48c4.14,0,7.51,3.34,7.55,7.48c0,4.43-1.58,7.14-10.9,14.46
				c-8.51,6.68-13.17,11.56-14.58,19.03h0c-0.33,1.79-0.48,3.6-0.47,5.42v5.42h10.85h0h24.31v-10.85h-23.47h0h0
				C469.43,709.34,472.13,706.49,478.34,701.61z"/>
			<path class="st0" d="M518.28,660.21c-10.09,0.01-18.26,8.18-18.27,18.27v26.21c0,10.09,8.18,18.27,18.27,18.27
				c10.09,0,18.27-8.18,18.27-18.27v-26.21C536.54,668.4,528.37,660.22,518.28,660.21z M525.7,704.69c0,4.1-3.33,7.42-7.42,7.42
				c-4.1,0-7.42-3.33-7.42-7.42v-26.21c-0.02-2.67,1.39-5.14,3.69-6.48c2.31-1.34,5.15-1.34,7.46,0c2.31,1.34,3.72,3.82,3.69,6.48
				V704.69z"/>
			<path class="st0" d="M564.91,701.61c8.81-6.91,15.05-12.61,15.05-22.99c-0.01-10.16-8.24-18.39-18.4-18.4l0,0
				c-10.16,0.01-18.39,8.24-18.4,18.4h10.85c0.04-4.14,3.41-7.48,7.55-7.48s7.51,3.34,7.55,7.48c0,4.43-1.58,7.14-10.9,14.46
				c-8.51,6.68-13.17,11.56-14.58,19.03h0c-0.33,1.79-0.48,3.6-0.47,5.42v5.42h10.85h0h24.31v-10.85h-23.47h0h0
				C556,709.34,558.7,706.49,564.91,701.61z"/>
			<path class="st0" d="M612.52,660.21L612.52,660.21v18.4c0,4.17-3.38,7.55-7.55,7.55c-4.17,0-7.55-3.38-7.55-7.55v-18.4h-10.85
				v18.4c0,6.24,3.17,12.06,8.41,15.45c5.24,3.39,11.85,3.89,17.54,1.33v0v27.57h10.85v-44.34v0v-18.4L612.52,660.21L612.52,660.21z
				"/>
		</g>
		<path class="st2" d="M710.57,664.04L710.57,664.04c-1.88,8.06-9.06,13.77-17.34,13.77h-59.81v-13.77H710.57z"/>
		<path class="st2" d="M705.2,687.04L705.2,687.04c-1.88,8.06-9.06,13.77-17.34,13.77h-54.44v-13.77H705.2z"/>
		<path class="st2" d="M699.83,710.04L699.83,710.04c-1.88,8.06-9.06,13.77-17.34,13.77h-49.07v-13.77H699.83z"/>
		<path class="st2" d="M369.43,664.04L369.43,664.04c1.88,8.06,9.06,13.77,17.34,13.77h59.81v-13.77H369.43z"/>
		<path class="st2" d="M374.8,687.04L374.8,687.04c1.88,8.06,9.06,13.77,17.34,13.77h54.44v-13.77H374.8z"/>
		<path class="st2" d="M380.17,710.04L380.17,710.04c1.88,8.06,9.06,13.77,17.34,13.77h49.07v-13.77H380.17z"/>
	</g>
	<g>
		<g>
			<g>
				<path class="st3" d="M500.09,363.22c0.96-0.04,1.4,0.17,1.62,1.21c0.62,2.98,2.51,4.13,5.44,3.43c2.48-0.6,4.63-2.14,6.13-4.19
					c1.49-2.03,2.8-4.89,1.57-7.36c-1.01-2.03-3.58-3.23-5.62-3.94c-2.38-0.84-4.93-1.06-7.43-0.8c-7.8,0.81-14.55,3.99-20.27,9.38
					c-2.02,1.9-3.79,4-5.52,6.15c-0.47,0.46-1.05,0.53-1.69,0.52c-1.29-0.01-2.57-0.17-3.86-0.15c-5.28,0.12-10.56,0.37-15.79,1.11
					c-8.12,1.16-16.83,3.7-22.7,9.75c-1.64,1.69-2.99,3.64-4.25,5.63c-1.49,2.36-2.63,4.94-3.1,7.71c-0.46,2.68-0.45,5.22,0.44,7.77
					c0.72,2.08,1.93,3.85,3.63,5.18c2.68,2.11,5.73,3.35,9.23,3.23c3.24-0.11,6.48-0.75,9.46-2.02c2.24-0.96,4.24-2.35,6.04-3.97
					c1.82-1.64,3.81-3.47,5.01-5.63c1.05-1.89,0.7-3.08-1.18-4.12c-0.38-0.21-0.75-0.43-1.12-0.65c-2.29-1.43-2.54-3.44-0.65-5.41
					c1.28-1.33,2.93-2.23,4.62-2.93c1.16-0.48,2.33-0.95,3.5-1.42c0.88-0.36,2.17-0.58,2.92-1.12c0.23-0.17,0.56-0.29,0.79-0.1
					c0.27,0.23,0.06,0.52-0.11,0.75c-0.19,0.26-0.21,0.6-0.35,0.88c-0.06,0.17-0.11,0.35-0.18,0.51
					c-4.11,9.04-8.35,18.03-12.9,26.87c-0.86,1.68-1.77,3.34-2.86,4.89c-1.07,1.52-2.45,2.8-3.75,4.12c-1.29,1.31-2.69,2.58-4.3,3.5
					c-2.83,1.6-6.53,1.79-9.61,0.82c-1.36-0.43-3.05-1.29-3.5-2.76c-0.29-0.94-0.14-1.97,0.23-2.86c0.38-0.93,1.08-1.61,1.62-2.44
					c0.73-1.12,1.8-2.41,1.67-3.83c-0.11-1.23-1.05-2.18-2.17-2.6c-0.86-0.32-1.73-0.5-2.61-0.68c-3.52-0.75-7.03-0.6-10.54,0.12
					c-6.86,1.4-13.6,4.09-18.72,9.01c-4.96,4.77-7.89,10.85-8.33,17.73c-0.15,2.43-0.01,4.96,0.44,7.38
					c0.9,4.82,3.45,8.33,6.93,11.71c6.11,5.95,14.43,7.79,22.7,7.17c8.54-0.64,17.08-3.49,23.88-8.82c2.03-1.59,3.94-3.33,5.71-5.2
					c1.61-1.7,3.56-3.6,4.67-5.69c0.08-0.16,0.15-0.33,0.26-0.47c2.57-3.52,4.73-7.28,6.69-11.18c1.98-3.95,3.49-8.09,5.18-12.17
					c0.27-0.25,0.4-0.6,0.54-0.93c1.01-2.47,2.06-4.91,3.12-7.36c0.59-1.37,0.55-1.38,2-1.23c0.51,0.05,1.01,0.05,1.52,0.06
					c3.43,0.08,7.9,0.97,8.96,4.77c0.45,1.62,0.46,3.42,0.04,5.09c-0.44,1.76-1.43,3.15-2.33,4.69c-0.03,0.05-0.63,0.31-0.75,0.41
					c-0.28,0.23-0.47,0.56-0.8,0.74c-0.92,0.51-1.86-0.24-2.68-0.64c-0.81-0.69-0.84-1.73-1.19-2.63c-0.81-2.09-2.25-2.65-4.21-1.65
					c-1.16,0.59-2.08,1.48-2.87,2.47c-3.08,3.91-4.78,8.4-5.47,13.3c-0.9,6.4,2.88,12.4,9.05,14.37c4.83,1.54,9.53,0.88,14.17-0.78
					c5.58-2,10.35-5.92,13.75-10.73c2.55-3.61,4.13-7.68,5.5-11.84c0.93-2.82,1.35-5.89,1.14-8.88c-0.11-1.54-0.39-3.06-0.87-4.53
					c-0.49-1.5-1.16-2.58-2.07-3.8c-1.35-1.78-3.02-3.17-5.09-4.07c-0.08-0.05-0.16-0.09-0.24-0.14c-0.31-0.44-0.84-0.5-1.28-0.73
					c-0.22-0.11-0.47-0.19-0.68-0.33c-0.23-0.15-0.67-0.16-0.65-0.49c0.02-0.4,0.48-0.37,0.77-0.45c1.16-0.31,2.27-0.75,3.34-1.29
					c9.76-4.84,11.77-17.29,3.98-24.79c-2-1.93-4.54-3.08-7.01-4.29c-0.74-0.46-1.57-0.69-2.38-0.97c-1.7-0.52-3.39-1.07-5.09-1.55
					c-0.76-0.22-0.71-0.42-0.21-0.96C492.27,364.93,495.85,363.39,500.09,363.22z M479.73,396.45c-1.51,0.38-3.03,0.67-4.59,0.8
					c-0.67,0.05-0.76-0.16-0.58-0.73c1.78-5.41,3.69-10.76,6.22-15.87c0.37-0.74,0.72-0.97,1.58-0.74c3.75,0.99,5.39,3.21,5.22,7.26
					C487.39,391.65,484.31,395.3,479.73,396.45z"/>
				<path class="st3" d="M633.29,407.85c-4.86-4.35-13.63-4.84-19.11-1.06c-2.09,1.44-4.11,2.98-6.17,4.47
					c-0.82,0.4-1.36,1.14-2.05,1.71c-1.22,1.1-2.44,2.21-3.66,3.31c0.13-1.47,0.48-2.79,0.81-4.11c2.16-8.83,4.3-17.65,6.47-26.48
					c0.48-1.94,0.97-3.86,0.8-5.89c-0.27-3.25-2.33-5.4-5.55-5.84c-3.32-0.45-6.49,0.18-9.59,1.29c-2.68,0.77-5.04,2.06-6.95,4.13
					c-0.29,0.54-1.2,0.91-0.46,1.73c1.31,1.47,1.51,3.24,1.36,5.1c-0.19,2.29-0.98,4.45-1.54,6.66c-1.57,6.21-3.14,12.42-4.73,18.63
					c-1.43,5.58-2.89,11.15-4.33,16.72c-1.74,6.76-3.48,13.53-5.22,20.29c-0.42,1.2-0.78,2.42-1,3.68
					c-0.08,0.46-0.56,1.03,0.04,1.32c0.39,0.19,2.29-1.48,2.76-1.72c3.48-1.72,6.92-0.26,10.6-0.55c2.87-0.23,5.43-1.61,7.17-3.9
					c1.82-2.4,2.35-5.17,2.97-8.03c0.45-2.06,1.04-4.08,1.82-6.21c2.79,6.97,5.13,15.6,12.42,19.23c3.83,1.91,7.71,1.53,11.59,0.16
					c3.93-1.38,7.35-3.7,10.78-5.98c0.58-0.31,1.04-0.78,1.46-1.26c1.37-1.54,1.18-3.57-0.37-4.37c-0.85-0.36-1.67-0.19-2.53,0.03
					c-4.35,1.11-8.45-1.78-11.31-4.89c-1.15-1.26-2.18-2.62-3.1-4.06c-2.03-3.13-3.57-6.55-4.97-10c-0.18-0.45-0.11-0.76,0.26-1.04
					c0.28-0.11,0.3-0.43,0.5-0.6c1.4-1.63,3.15-2.77,5.08-3.66c0.22-0.1,0.43-0.37,0.69-0.19c0.27,0.19,0.07,0.47,0.04,0.7
					c-0.25,2.11,0.04,4.07,1.65,5.62c2.42,2.34,5.38,2.63,8.43,1.87C635.36,422.94,638.96,412.94,633.29,407.85z"/>
				<path class="st3" d="M570.73,437.01c-0.92-0.21-1.79-0.11-2.67,0.19c-1.52,0.51-3.06,0.91-4.66,0.3
					c-0.36-0.36-0.79-0.68-1.01-1.17c-0.84-2.01-0.35-4.03,0.14-5.98c1.51-6.01,3.14-11.98,4.69-17.98c0.44-1.68,0.98-3.34,1-5.11
					c0.02-2.18-1.32-3.92-3.42-4.48c-1.62-0.44-3.23-0.35-4.85-0.01c-2.79,0.58-5.22,1.92-7.51,3.57c-0.56,0.4-0.94,0.44-1.5-0.04
					c-0.88-0.75-1.86-1.38-2.79-2.06c-8.21-5.99-18.59-1.7-25.35,4.29c-7.37,6.52-12.02,16.41-12.15,26.26
					c-0.04,3.36,0.62,7.09,2.1,10.13c0.31,0.63,0.69,1.23,1.16,1.74c3.19,3.44,8.05,4.15,12.45,3.12c2.19-0.51,4.29-1.41,6.18-2.62
					c2.31-1.49,4.11-3.59,6.26-5.29c0.53-0.42,0.97-0.94,1.38-1.48c0.3-0.48,0.59-0.96,1.18-1.25c0.17,1.36,0.3,2.65,0.49,3.93
					c0.51,3.27,1.87,5.97,5.22,7.14c2.47,0.86,5.06,0.89,7.63,0.63c4.81-0.49,8.92-2.78,12.99-5.17c1.22-0.54,2.24-1.35,3.16-2.3
					c0.71-0.96,1.47-1.89,1.81-3.07C573.12,438.69,572.34,437.38,570.73,437.01z M545.63,419.91c-0.37,3.19-1.84,5.72-4.89,7.03
					c-2.42,1.04-4.59-0.12-5.29-2.67c-0.96-3.47,0.87-7.09,3.77-9.02c1.89-0.81,3.72-1.01,5.32,0.63
					C545.67,417.01,545.8,418.46,545.63,419.91z"/>
				<path class="st3" d="M687.01,435.22c-1.01-0.25-2.09-0.36-3.11,0.01c-2.4,0.88-4.55,2.26-6.82,3.42
					c-4.14,2.12-11.97,4.98-15.74,0.78c-0.62-0.7-0.83-1.58-1.04-2.46c-0.17-0.74,0-1.04,0.82-1.1c1.98-0.14,3.97-0.32,5.94-0.62
					c5.59-0.85,10.99-2.27,15.57-5.84c1.14-0.58,1.84-1.56,2.56-2.58c3.06-4.31,3.06-10.76-0.01-15.22c-2.27-3.3-5.45-4.96-9.19-5.5
					c-3.86-0.55-7.75-0.56-11.65,0.26c-3.76,0.79-7.45,1.96-10.87,3.7c-2.12,1.08-4.21,2.26-6.05,3.77
					c-3.48,2.85-6.29,7.51-7.95,11.64c-3.52,8.73-2.5,19.85,5.68,25.57c5.44,3.81,11.59,4.49,18,3.8c3.19-0.34,6.24-1.26,9.28-2.23
					c1-0.12,1.8-0.73,2.71-1.09c1.86-0.73,3.63-1.68,5.23-2.83c2.01-1.45,3.98-2.98,5.72-4.8c1.39-1.46,2.38-3.07,2.95-4.96
					C689.48,437.52,688.46,435.58,687.01,435.22z M662.59,423.1c0.97-2.49,3.18-6.42,6.29-6.34c1.75,0.05,3.09,1.62,2.68,3.36
					c-0.58,2.44-3.33,3.36-5.46,3.92c-0.82,0.22-1.7,0.5-2.56,0.38C662.1,424.39,662.09,424.39,662.59,423.1z"/>
			</g>
		</g>
		<path class="st2" d="M533.4,317.31c2.44,2.99,4.86,6,7.34,8.95c3.14,3.75,3.87,7.95,2.58,12.59c-0.69,2.47-1.67,4.83-2.81,7.11
			c-2.39,4.76-2.76,9.67-1.47,14.78c0.84,3.33,2.13,6.49,3.74,9.5c2.23,4.17,1.96,8.19-0.41,12.17c-1.51,2.54-3.59,4.62-5.6,6.81
			c0.21-0.72,0.42-1.44,0.63-2.16c1.95-6.79,1.17-13.25-2.32-19.4c-0.97-1.71-2.05-3.34-3.22-4.91c-3.18-4.25-3.67-8.89-1.98-13.83
			c0.92-2.69,2.27-5.18,4.08-7.37c3.66-4.44,4.27-9.43,2.92-14.83c-0.81-3.25-2.15-6.28-3.67-9.24
			C533.15,317.31,533.23,317.27,533.4,317.31z"/>
		<path class="st2" d="M552.83,398.42c-1.41-1.91-2.76-3.87-4.24-5.72c-3.35-4.16-3.86-8.64-1.84-13.52
			c0.76-1.83,1.54-3.67,2.12-5.57c1.12-3.68,0.54-7.21-0.94-10.66c-0.83-1.93-1.75-3.82-2.09-5.94c-0.65-4.07,0.51-7.56,3.14-10.64
			c0.3-0.35,0.63-0.69,1.1-1.21c-0.12,1.03-0.2,1.83-0.31,2.62c-0.72,5.51,0.34,10.61,3.4,15.29c1.19,1.81,2.18,3.75,2.65,5.9
			c0.6,2.72,0.15,5.31-1.03,7.79c-0.78,1.63-1.59,3.25-2.42,4.86c-2.1,4.06-2.12,8.25-0.88,12.53c0.41,1.4,0.92,2.76,1.53,4.08
			C553.07,398.43,553,398.48,552.83,398.42z"/>
		<path class="st2" d="M559.04,384.71c1.88-2.92,3.26-6.04,3.96-9.46c1.02-5,0.35-9.84-1.41-14.57c-0.6-1.61-1.33-3.15-2.04-4.72
			c3.9,3.16,7.51,6.52,8.68,11.7c0.7,3.11,0.01,6-1.48,8.74c-1.81,3.31-4.46,5.9-7.32,8.29
			C559.29,384.82,559.17,384.81,559.04,384.71z"/>
	</g>
	<g>
		<path class="st3" d="M418.2,520.93c-4.84,0-9.49,1.95-12.89,5.41c-3.39-3.46-8.03-5.41-12.87-5.41c-3.74,0-7.39,1.17-10.44,3.33
			c-1.93-2.05-4.6-3.2-7.41-3.2h-5.2v10.39h4.96v49.62h10.41v-42.04c0-4.26,3.43-7.68,7.68-7.68c4.22,0,7.65,3.39,7.68,7.62v42.11
			h10.39v-42.04c0-2.12,0.86-4.05,2.26-5.44c1.38-1.38,3.31-2.24,5.43-2.24c4.24,0,7.68,3.43,7.68,7.68v42.04h10.39v-42.04
			C436.27,529.05,428.17,520.95,418.2,520.93z"/>
		<path class="st3" d="M453.02,559.73h19.13v21.33h10.41v-40.1c-0.02-11.03-8.94-19.95-19.97-19.97
			c-11.01,0.02-19.95,8.94-19.95,19.97v40.16h10.39V559.73z M453.02,540.97c0-5.29,4.29-9.56,9.56-9.56c5.29,0,9.56,4.27,9.56,9.56
			v8.37h-19.13V540.97z"/>
		<polygon class="st3" points="523.63,570.8 499.27,570.8 499.27,521.05 488.88,521.05 488.88,581.19 523.63,581.19 		"/>
		<path class="st3" d="M569.88,540.97c0-11.03-8.94-19.95-19.95-19.97c-11.03,0.02-19.95,8.94-19.97,19.97v40.16h10.41v-21.4h19.13
			v21.33h10.39v-21.33h0.02v-10.39h-0.02V540.97z M559.49,549.34h-19.13v-8.37c0-5.29,4.27-9.56,9.56-9.56
			c5.29,0,9.56,4.27,9.56,9.56V549.34z"/>
		<path class="st3" d="M611.33,548.31c3.57-5.41,3.88-12.34,0.79-18.04c-3.07-5.7-9.03-9.27-15.51-9.27h-22.14v10.41h4.53v24.85
			h-0.02v14.44h0.02v10.41h23.36c7.94,0,14.9-5.31,17.01-12.97C621.47,560.46,618.17,552.34,611.33,548.31z M589.4,531.41h7.22
			c2.6-0.03,5.01,1.34,6.31,3.58c1.31,2.26,1.31,5.01,0,7.27c-1.27,2.21-3.65,3.58-6.2,3.58h-7.32V531.41z M602.37,570.69H589.4
			v-14.44h12.98c4,0,7.22,3.22,7.22,7.22C609.59,567.47,606.37,570.69,602.37,570.69z"/>
		<path class="st3" d="M666.25,581.07v-40.1c-0.02-11.03-8.94-19.95-19.97-19.97c-11.01,0.02-19.94,8.94-19.95,19.97v40.16h10.39
			v-21.4h19.14v21.33H666.25z M636.71,549.34v-8.37c0-5.29,4.29-9.56,9.56-9.56c5.29,0,9.58,4.27,9.58,9.56v8.37H636.71z"/>
		<path class="st3" d="M705.48,550.96v-0.02c5.01-5.05,6.51-12.61,3.77-19.18c-2.74-6.56-9.15-10.86-16.27-10.86h-22.14v10.39h4.51
			v49.74h10.41v-24.9h7.48c3.89,0.16,6.96,3.34,6.96,7.22v17.68h10.41v-17.68C710.62,558.72,708.77,554.27,705.48,550.96z
			 M693.25,545.76h-7.48V531.3h7.22c3.95,0,7.15,3.17,7.22,7.1C700.28,542.35,697.19,545.62,693.25,545.76z"/>
		<polygon class="st3" points="369.38,602.53 379.83,602.53 379.83,645.13 388.72,645.13 388.72,602.53 399.16,602.53 
			399.16,593.63 369.38,593.63 		"/>
		<path class="st3" d="M434.53,602.93c-2.34-5.63-7.84-9.3-13.94-9.3h-18.95v8.91h3.86v42.59h8.91v-21.31h6.41
			c3.33,0.12,5.96,2.84,5.96,6.19v15.13h8.91V630c0-4-1.59-7.82-4.39-10.65C435.58,615.04,436.88,608.55,434.53,602.93z
			 M420.82,614.91h-6.41v-12.37h6.19c3.38,0,6.13,2.71,6.19,6.08C426.85,611.98,424.19,614.79,420.82,614.91z"/>
		<path class="st3" d="M458.28,593.71c-9.44,0-17.09,7.65-17.11,17.09v34.41h8.91v-18.33h16.39v18.26h8.91v-34.34
			C475.35,601.36,467.7,593.71,458.28,593.71z M466.46,617.97h-16.39v-7.17c0-4.53,3.67-8.2,8.2-8.2c4.51,0,8.18,3.67,8.18,8.2
			V617.97z"/>
		<path class="st3" d="M499.59,593.71h-20.28v8.89h3.86v42.61h16.42c9.12-0.02,16.49-7.39,16.51-16.51V610.2
			C516.08,601.1,508.71,593.71,499.59,593.71z M507.19,628.71c0,4.2-3.41,7.6-7.6,7.6h-7.51v-33.7h7.51c4.2,0.02,7.6,3.41,7.6,7.6
			V628.71z"/>
		<path class="st3" d="M521.91,605.64c-0.22,1.07-0.34,2.12-0.34,3.17v21.3c0.02,8.34,6.77,15.09,15.11,15.11h16.47v-8.91h-16.47
			c-3.43,0-6.19-2.77-6.2-6.2v-7.53c1.95,0.88,4.07,1.34,6.2,1.34h16.47v-8.91h-16.47c-3.43,0-6.2-2.77-6.2-6.2
			c0-3.41,2.77-6.19,6.2-6.2h16.47v-8.89h-16.47C529.56,593.71,523.41,598.68,521.91,605.64z"/>
		<path class="st3" d="M579.63,605.64c-0.24,1.1-0.33,2.22-0.31,3.31c-0.02-0.05-0.02-0.09-0.02-0.14v0.55v35.86h8.89v-22.64
			c1.95,0.88,4.07,1.34,6.2,1.34h16.47v-8.91H594.4c-3.43,0-6.19-2.77-6.2-6.2c0.02-3.41,2.77-6.19,6.2-6.2h16.47v-8.89H594.4
			C587.28,593.71,581.13,598.68,579.63,605.64z"/>
		<path class="st3" d="M650.52,610.8c-0.01-9.44-7.66-17.09-17.1-17.1v0c-9.44,0.01-17.09,7.66-17.1,17.1v7.17l0,0v8.9l0,0v18.33
			h8.9v-18.33h0h16.39v18.27h8.9v-18.27h0v-8.9h0V610.8z M625.23,617.98L625.23,617.98l0-7.17c0-4.52,3.67-8.19,8.19-8.19
			c4.52,0,8.19,3.67,8.19,8.19v7.17H625.23z"/>
		<polygon class="st3" points="668.71,602.76 668.71,636.36 672.57,636.36 672.57,645.25 655.94,645.25 655.94,636.36 659.8,636.36 
			659.8,602.76 655.94,602.76 655.94,593.85 659.8,593.85 659.8,593.75 668.71,593.75 668.71,593.85 672.57,593.85 672.57,602.76 		
			"/>
		<path class="st3" d="M706.22,619.35c-0.02,0-0.02,0-0.02,0c4.31-4.31,5.58-10.8,3.24-16.42c-2.33-5.63-7.84-9.3-13.92-9.3h-14.47
			c-0.02,0-0.03,0-0.03,0h-4.46v8.91h3.88v42.59h8.91v-21.31h6.41c1.67,0.07,3.15,0.78,4.22,1.9c1.09,1.1,1.74,2.62,1.74,4.29v15.13
			h8.91V630C710.62,626,709.03,622.18,706.22,619.35z M689.34,614.91v-12.37h6.19c3.38,0,6.12,2.71,6.19,6.08
			c0.05,3.36-2.6,6.17-5.96,6.29H689.34z"/>
		<polygon class="st3" points="706.21,619.36 706.21,619.36 706.22,619.36 		"/>
	</g>
</g>
</svg>
